<svg id="Layer_1" data-name="Layer 1" xmlns="http://www.w3.org/2000/svg" xmlns:xlink="http://www.w3.org/1999/xlink" viewBox="0 0 3503.89 1538.19"><defs><style>.cls-1{fill:none;}.cls-2{fill:#f7f0ee;}.cls-3{clip-path:url(#clip-path);}.cls-4{isolation:isolate;fill:url(#radial-gradient);}.cls-5{fill:#7034f5;}.cls-6{fill:#ff6d6d;}.cls-7{fill:#0fce7c;}.cls-22,.cls-23,.cls-24,.cls-25,.cls-7{stroke:#231f20;stroke-miterlimit:10;stroke-width:0.25px;}.cls-8{fill:#5e5e5e;}.cls-9{fill:#f35790;}.cls-10{fill:#f578a6;}.cls-11{fill:#d44c6e;}.cls-12{fill:#8991b1;}.cls-13{fill:#62678e;}.cls-14{fill:#767d99;}.cls-15{fill:#61678e;}.cls-16{fill:#54597b;}.cls-17{fill:#09e3ac;}.cls-18{fill:#5cf2cd;}.cls-19{fill:#14bd92;}.cls-20{fill:#8d60f7;}.cls-21{fill:#5a29c4;}.cls-22{fill:#eff4ee;}.cls-23{fill:#25e899;}.cls-24{fill:#15003e;}.cls-25{fill:#fff;}.cls-26{fill:#00a8ff;}.cls-27{fill:#00e2ff;}.cls-28{fill:#00c6ff;}.cls-29{fill:#00fcff;}</style><clipPath id="clip-path" transform="translate(397.18 289.65)"><rect class="cls-1" y="0.01" width="2999.53" height="1111.99"/></clipPath><radialGradient id="radial-gradient" cx="1499.53" cy="553.9" r="1131.2" gradientTransform="translate(397.36 289.65)" gradientUnits="userSpaceOnUse"><stop offset="0" stop-color="#7034f5"/><stop offset="1" stop-color="#ff6d6d"/></radialGradient></defs><g id="Layer_1-2" data-name="Layer 1"><rect class="cls-2" x="397.18" y="289.65" width="2999.53" height="1111.99"/><g class="cls-3"><rect class="cls-4" x="396.88" y="287.45" width="2999.83" height="1112.2"/><path class="cls-5" d="M1487.22-109.39c87.67,29.85,115.55,94.69,105.39,152.72-16.86,96.54-155.89,114-244.1,177.28-56.32,40.41-50.18,79.24-49.73,129.5.68,75.51-26.79,116.62-131.39,159.09-70.36,28.58-108.12,40.17-107,93.2,1.31,58.62,41.07,119.12,17,177.58C1050,847,956.64,861.56,878.28,896.32c-51.49,22.82-55.49,46.73-61.2,83.64-14.63,94.61-6.48,161.31-166.7,204.11-158.46,42.33-349.71,29.8-512.53,4.18-309.65-48.72-392.41-294.73-426.31-466.79-27.07-137.28-22-279-20-417.21,1.34-92.86,1.9-208.4,77-291.89,64.94-72.11,217.17-97.78,337.16-121,258.45-50,539.29-55.17,808.46-55.92C956-164.67,1484.17-201.76,1487.22-109.39Z" transform="translate(397.18 289.65)"/><path class="cls-6" d="M706.08-212.36c103.16,33.61,153.75,102.77,135,171C820.27,34.81,699.89,89.15,716.66,172.53c14.86,74.09,130.58,128.79,141.08,207.54,10,75.12-58,141.34-46.18,214.78,9.82,60.78,114,76.16,164.46,125.47,46.17,45.08,30.1,81.22-.27,126.87-24.26,36.48-51.2,58.76-14.32,92,49.64,44.77,131.71,53.51,149.8,109.7,15.36,47.75-7.61,139.85-92,159.66-82.91,19.43-192.61,5.06-276.24-2.66-143.23-13.24-285.82-20.7-429.88-29.06-174-10.09-428.48-17.91-540.07-106.8-102.9-82-106.41-202.24-110.65-300.22C-342.07,666.42-322.17,569.25-304,467c18.88-106.47,21.3-213.62,59.64-318.67,39.19-107.53,48.26-260.42,214-333.7,119.67-52.88,291.63-40.88,432.71-40.72C509.48-226,594.25-229.55,706.08-212.36Z" transform="translate(397.18 289.65)"/><path class="cls-7" d="M870.29-208.92c-.28,65.35,10,110.7-62.64,164.17C737.19,7.1,618,27.29,553.48,77.68c-69.22,54-59,149.11-66.57,211.72-9.53,79.16-50.68,135.48-143.74,190.91-63.87,38-122.37,65-131,123-8.8,58.88,41.52,104.38,64.08,159.38,28.88,70.4-10.67,111-79.76,164-45.81,35.2-80,67.32-79.66,113.86.22,36.9,21.64,81.2-.21,117.14-17.65,29-78.19,58.93-119.26,75.83C-210,1318.91-305.35,1011.69-319,937.62-366.4,680.51-394.45,427.67-394.45,169c0-107.4-32-265,128-342.24,154.25-74.42,394.56-106.37,585.26-112.2,123.86-3.83,252.28-12.11,369.72,16.7,39.45,9.68,70.93,20.09,98,39C806.39-215.75,813.5-195,870.29-208.92Z" transform="translate(397.18 289.65)"/><path class="cls-8" d="M-165.24,974.88c-14.51-.69-28.64-.7-42.35-.11V982c132.12-5.72,266.17,52.8,254.29,139.89-9.59,70.2-92.2,79.27-44.91,79.27C132.74,1115.64,33.07,984.35-165.24,974.88Z" transform="translate(397.18 289.65)"/><path class="cls-8" d="M-196.14,1008c-3.9.1-7.66.35-11.45.58v8.61c91.12-6.11,189.92,22.6,194.58,91,6.44,94.94-174,92.83-76.77,92.83C76.81,1144.92-3.65,1002.59-196.14,1008Z" transform="translate(397.18 289.65)"/><path class="cls-8" d="M-207.59,1043.24v6.52q6.51-.6,13.45-.85c154.92-5.66,162.68,126.33,7.45,126.33-7.35,0-14.25-.38-20.9-1v7.2c63.58,5.46,134.28-14.14,146.46-58.91C-45.25,1064.15-131.51,1037.55-207.59,1043.24Z" transform="translate(397.18 289.65)"/><path class="cls-8" d="M-166.84,1076.62a116.7,116.7,0,0,0-40.75.21v8c35.41-6.67,84.75,3.94,73.17,33.45-7.82,20-44.93,27.59-73.17,21.13v7.86c32.71,5.81,72.69-2.39,84.72-24.73C-111.69,1101.81-133.69,1082.39-166.84,1076.62Z" transform="translate(397.18 289.65)"/><path class="cls-8" d="M445.67,974.88c-217.52-10.46-354.23,132-209.92,226.25h17.94c-82.58-48.83-83.78-123.67-8.19-173.16,147.74-97.08,429.09-30.46,412.12,93.89-9.58,70.2-92.19,79.27-44.9,79.27C743.74,1115.57,643.75,984.34,445.67,974.88Z" transform="translate(397.18 289.65)"/><path class="cls-8" d="M414.75,1008c-182.17,5.09-246,139.58-87.44,193,92.6,0-59.63,4.36-76-78.57-25.75-130.67,337.51-146.79,346.54-14.26,6.42,94.94-174,92.83-76.79,92.83C687.22,1145.09,608,1002.57,414.75,1008Z" transform="translate(397.18 289.65)"/><path class="cls-8" d="M549.77,1122.56c28.88-106.26-280.31-107.31-251.13,0C320.31,1202.25,528.05,1202.38,549.77,1122.56Zm-125.56,52.68c-145.58,0-153-121-7.46-126.33,154.92-5.66,162.69,126.33,7.46,126.33Z" transform="translate(397.18 289.65)"/><path class="cls-8" d="M444,1076.62c-49.82-8.7-99.37,16.77-83.65,45.94,19,35.35,108.53,35.44,127.63,0C499.2,1101.81,477.19,1082.39,444,1076.62Zm32.43,41.68c-11.49,29.3-85.86,32-103,2.81C345,1072.42,495.81,1069,476.47,1118.3Z" transform="translate(397.18 289.65)"/><path class="cls-8" d="M1056.54,974.88c-219.16-10.54-353.27,132.67-209.89,226.25h17.92C782.7,1152.74,780.05,1078,856.35,1028c147.75-97.09,429.1-30.45,412.13,93.89-9.58,70.2-92.2,79.27-44.91,79.27C1354.83,1115.44,1254.25,984.32,1056.54,974.88Z" transform="translate(397.18 289.65)"/><path class="cls-8" d="M1025.64,1008c-182.46,5.1-245.89,139.63-87.44,193,92.6,0-59.62,4.36-76-78.57-25.74-130.62,337.51-146.84,346.54-14.26,6.43,94.94-174,92.83-76.79,92.83C1297.82,1145.18,1219.28,1002.56,1025.64,1008Z" transform="translate(397.18 289.65)"/><path class="cls-8" d="M1160.63,1122.56c28.9-106.33-280.26-107.18-251.11,0C931.21,1202.25,1138.94,1202.38,1160.63,1122.56Zm-125.56,52.68c-145.2,0-153.63-121-7.45-126.33,154.94-5.66,162.7,126.33,7.47,126.33Z" transform="translate(397.18 289.65)"/><path class="cls-8" d="M1054.94,1076.62c-49.86-8.68-99.38,16.78-83.67,45.94,19,35.35,108.55,35.44,127.65,0C1110.1,1101.81,1088.09,1082.39,1054.94,1076.62Zm32.43,41.68c-11.47,29.24-85.82,32.08-103,2.81-28.48-48.71,122.32-52.12,103-2.81Z" transform="translate(397.18 289.65)"/><path class="cls-8" d="M1667.43,974.88c-218.35-10.5-353.84,132.3-209.92,226.25h17.92c-82.59-48.84-83.78-123.67-8.2-173.16,147.44-96.87,429.14-30.72,412.14,93.89-9.59,70.2-92.19,79.27-44.91,79.27C1965.42,1115.64,1865.74,984.35,1667.43,974.88Z" transform="translate(397.18 289.65)"/><path class="cls-8" d="M1636.54,1008c-182.2,5.09-246,139.58-87.45,193,92.59,0-59.63,4.36-76-78.57-25.74-130.67,337.53-146.79,346.54-14.26,6.44,94.94-174,92.83-76.78,92.83C1909,1145.09,1829.83,1002.57,1636.54,1008Z" transform="translate(397.18 289.65)"/><path class="cls-8" d="M1771.6,1122.56c28.88-106.26-280.3-107.31-251.13,0C1542.1,1202.25,1749.84,1202.38,1771.6,1122.56ZM1646,1175.24c-145.57,0-153-121-7.44-126.33,154.87-5.66,162.63,126.33,7.39,126.33Z" transform="translate(397.18 289.65)"/><path class="cls-8" d="M1665.83,1076.62c-49.83-8.7-99.38,16.77-83.66,45.94,19,35.35,108.54,35.44,127.63,0C1721,1101.81,1699,1082.39,1665.83,1076.62Zm32.42,41.68c-11.49,29.3-85.85,32-103,2.81C1566.79,1072.42,1717.6,1069,1698.25,1118.3Z" transform="translate(397.18 289.65)"/><path class="cls-8" d="M2278.33,974.88c-218.12-10.49-354,132.24-209.93,226.25h17.92c-82.59-48.84-83.78-123.67-8.19-173.16,147.74-97.08,429.12-30.44,412.13,93.89-9.92,70.93-92.86,79.27-44.9,79.27C2576.63,1115.43,2476,984.32,2278.33,974.88Z" transform="translate(397.18 289.65)"/><path class="cls-8" d="M2247.42,1008c-182.45,5.1-245.89,139.63-87.45,193,92.61,0-59.61,4.36-76-78.57-25.67-130.25,337.47-147,346.54-14.26,6.37,94.94-174,92.83-76.79,92.83C2518.94,1145.41,2441.56,1002.54,2247.42,1008Z" transform="translate(397.18 289.65)"/><path class="cls-8" d="M2382.44,1122.56c28.88-106.49-280.18-106.88-251.12,0C2153,1202.25,2360.72,1202.38,2382.44,1122.56Zm-125.56,52.68c-145.21,0-153.63-121-7.46-126.33,154.69-5.65,162.81,126.33,7.46,126.33Z" transform="translate(397.18 289.65)"/><path class="cls-8" d="M2276.72,1076.62c-49.92-8.71-99.35,16.82-83.66,45.94,19,35.35,108.54,35.44,127.64,0C2331.88,1101.76,2309.81,1082.38,2276.72,1076.62Zm32.43,41.68c-11.44,29.24-85.82,32.08-103,2.81-28.46-48.68,122.42-52.12,103-2.81Z" transform="translate(397.18 289.65)"/><path class="cls-8" d="M3106.71,1076.67c-25.74-52.63-106.3-96.48-217.5-101.79-218.35-10.5-353.8,132.33-209.92,226.25h17.92c-82-48.5-84.33-123.17-8.19-173.16,147.8-97,429.07-30.48,412.13,93.89-9.35,70.17-92.38,79.27-44.91,79.27,24.82-16.21,41.32-34,50.47-52.32Z" transform="translate(397.18 289.65)"/><path class="cls-8" d="M2858.31,1008c-182.2,5.09-246.07,139.57-87.44,193,92.62,0-59.62,4.4-76-78.57-25.76-130.62,337.48-146.84,346.54-14.26,6.37,95-174,92.83-76.78,92.83C3130.52,1145.19,3051.91,1002.56,2858.31,1008Z" transform="translate(397.18 289.65)"/><path class="cls-8" d="M2993.33,1122.56c29-106.58-280.08-106.62-251.13,0C2763.88,1202.25,2971.62,1202.38,2993.33,1122.56Zm-125.56,52.68c-145.21,0-153.61-121-7.46-126.33,155-5.66,162.67,126.33,7.46,126.33Z" transform="translate(397.18 289.65)"/><path class="cls-8" d="M2887.61,1076.62c-50.19-8.74-99.29,17-83.66,45.94,19.05,35.35,108.54,35.44,127.64,0C2942.77,1101.82,2920.76,1082.39,2887.61,1076.62ZM2920,1118.3c-11.57,29.4-86,31.89-103,2.81C2788.54,1072.43,2939.33,1069,2920,1118.3Z" transform="translate(397.18 289.65)"/></g><path class="cls-9" d="M2215.25,723.42l.05-.11.14-.09h.07c1.22,2,2.46,4,3.68,6l32.68,54.24c.1.17.18.35.27.52-.59-.26-1.2-.51-1.79-.78l-10.16-4.63-11.36-5.15-11.4-5.19c-.68-.31-1.38-.55-2.07-.83a.43.43,0,0,0,0-.16V724A2.87,2.87,0,0,0,2215.25,723.42Z" transform="translate(397.18 289.65)"/><path class="cls-10" d="M2215.25,723.42a2.9,2.9,0,0,1,.12.57v43.25a.43.43,0,0,1,0,.16h0l-.14.1a2.44,2.44,0,0,0-.46.14l-14.43,6.55-19.83,9c-.53.24-1.08.43-1.61.63a4.94,4.94,0,0,1,.26-.57q4.11-6.82,8.19-13.65l9-14.84,9.93-16.49,8.61-14.29C2215,723.81,2215.12,723.62,2215.25,723.42Z" transform="translate(397.18 289.65)"/><path class="cls-11" d="M2215.36,767.4c.69.28,1.39.52,2.07.83l11.4,5.19,11.36,5.15,10.16,4.63c.59.27,1.2.52,1.79.78a1.72,1.72,0,0,1-.41.44q-6.48,3.86-13,7.69L2216,805.55a5,5,0,0,1-.64.25V767.51a.17.17,0,0,0,0-.1Z" transform="translate(397.18 289.65)"/><path class="cls-9" d="M2215.36,767.51v38.28l-9.72-5.72-26.4-15.62a2.61,2.61,0,0,1-.47-.47l.15-.12h0c.53-.2,1.08-.39,1.61-.63l19.83-9,14.43-6.55a2.44,2.44,0,0,1,.46-.14Z" transform="translate(397.18 289.65)"/><path class="cls-9" d="M2252,791.46q-3,4.29-6.07,8.59l-30,42.29-.45.61-.23-.34a4.75,4.75,0,0,0,.14-.84v-29a4.35,4.35,0,0,0,.59-.25l35.4-20.91c.18-.1.36-.18.53-.28Z" transform="translate(397.18 289.65)"/><path class="cls-10" d="M2215.36,812.81v29a4.75,4.75,0,0,1-.14.84l-3.51-4.9c-1.55-2.18-3.11-4.36-4.66-6.55-1.3-1.84-2.6-3.69-3.91-5.53-2.72-3.83-5.46-7.65-8.17-11.47-2.3-3.24-4.58-6.49-6.87-9.74l-7.22-10.18-1.94-2.76.09-.08c.72.4,1.46.79,2.17,1.21q4.23,2.49,8.45,5l11,6.53,11,6.47Z" transform="translate(397.18 289.65)"/><path class="cls-12" d="M2179,791.48l-.1-.15.19.07Z" transform="translate(397.18 289.65)"/><path class="cls-13" d="M2215.38,723.21h0Z" transform="translate(397.18 289.65)"/><path class="cls-14" d="M2215.38,723.21h.06l-.14.09Z" transform="translate(397.18 289.65)"/><path class="cls-12" d="M2178.92,783.86l-.15.12Z" transform="translate(397.18 289.65)"/><path class="cls-15" d="M2251.88,791.37h.16v.12Z" transform="translate(397.18 289.65)"/><path class="cls-16" d="M2215.36,767.51h-.13l.14-.1A.34.34,0,0,1,2215.36,767.51Z" transform="translate(397.18 289.65)"/><path class="cls-17" d="M2279.77,654.21v-.1l.15-.09.06,0c1.23,2,2.46,4,3.68,6l32.69,54.23c.1.17.18.35.27.53l-1.79-.79-10.16-4.62-11.36-5.16L2281.9,699c-.67-.3-1.37-.55-2.06-.82V654.78A3.55,3.55,0,0,0,2279.77,654.21Z" transform="translate(397.18 289.65)"/><path class="cls-18" d="M2279.77,654.21a2.62,2.62,0,0,1,.12.57V698.2h0l-.14.09a1.29,1.29,0,0,0-.46.14L2264.86,705,2245,714c-.52.24-1.07.42-1.61.63a6.11,6.11,0,0,1,.27-.58l8.19-13.64c3-5,6-9.91,9-14.86l9.93-16.48,8.61-14.28C2279.51,654.61,2279.64,654.41,2279.77,654.21Z" transform="translate(397.18 289.65)"/><path class="cls-19" d="M2279.88,698.2c.69.27,1.39.52,2.06.82l11.41,5.19,11.36,5.16,10.16,4.62,1.79.79a2.85,2.85,0,0,1-.41.44l-13,7.69-22.75,13.44a2.8,2.8,0,0,1-.63.23V698.31a.17.17,0,0,1,0-.1Z" transform="translate(397.18 289.65)"/><path class="cls-17" d="M2279.88,698.31v38.27l-9.72-5.72q-13.22-7.8-26.41-15.62a3.41,3.41,0,0,1-.47-.46l.16-.13h0c.54-.21,1.09-.39,1.61-.63l19.84-9,14.43-6.56c.14-.06.31-.09.46-.14Z" transform="translate(397.18 289.65)"/><path class="cls-17" d="M2316.57,722.26q-3,4.29-6.08,8.59l-30,42.29c-.13.19-.27.37-.45.61l-.23-.35a5.77,5.77,0,0,0,.15-.83v-29a3.32,3.32,0,0,0,.59-.24l35.4-20.91c.17-.1.35-.18.53-.27Z" transform="translate(397.18 289.65)"/><path class="cls-18" d="M2279.88,743.59v29a5.77,5.77,0,0,1-.15.83l-3.5-4.89c-1.56-2.18-3.11-4.37-4.66-6.55-1.31-1.85-2.6-3.7-3.91-5.54q-4.1-5.73-8.18-11.48c-2.29-3.23-4.57-6.48-6.87-9.72q-3.6-5.1-7.22-10.19l-1.93-2.75.08-.09c.73.4,1.46.79,2.18,1.21l8.45,5,11,6.53q5.48,3.24,11,6.46Z" transform="translate(397.18 289.65)"/><path class="cls-12" d="M2243.47,722.28l-.1-.15.18.06Z" transform="translate(397.18 289.65)"/><path class="cls-13" d="M2279.89,654h.13l-.06,0Z" transform="translate(397.18 289.65)"/><path class="cls-14" d="M2279.89,654h.07l-.15.09Z" transform="translate(397.18 289.65)"/><path class="cls-12" d="M2243.44,714.65l-.16.13Z" transform="translate(397.18 289.65)"/><path class="cls-15" d="M2316.4,722.17h.16v.13Z" transform="translate(397.18 289.65)"/><path class="cls-16" d="M2279.88,698.31h-.13l.14-.09A.25.25,0,0,0,2279.88,698.31Z" transform="translate(397.18 289.65)"/><path class="cls-5" d="M1982.73,412.55v-.1l.14-.09a.13.13,0,0,1,.07-.05c1.21,2,2.45,4,3.66,6.06l32.69,54.23c.1.17.18.35.27.53l-1.79-.8-10.16-4.63-11.36-5.15-11.4-5.19c-.68-.3-1.38-.55-2.06-.82V413.12A5.51,5.51,0,0,0,1982.73,412.55Z" transform="translate(397.18 289.65)"/><path class="cls-20" d="M1982.73,412.55a5.78,5.78,0,0,1,.12.57v43.42h0l-.14.09-.46.14-14.43,6.56-19.84,9c-.52.25-1.07.43-1.61.64a5.14,5.14,0,0,1,.27-.58l8.19-13.66,9-14.84,9.93-16.48,8.61-14.29C1982.47,413,1982.59,412.75,1982.73,412.55Z" transform="translate(397.18 289.65)"/><path class="cls-21" d="M1982.84,456.54c.68.27,1.39.52,2.06.82l11.4,5.19,11.36,5.15,10.16,4.63,1.79.8a2.12,2.12,0,0,1-.41.44l-13,7.68-22.74,13.45a5.33,5.33,0,0,1-.63.23V456.55Z" transform="translate(397.18 289.65)"/><path class="cls-5" d="M1982.84,456.64v38.25l-9.72-5.72-26.4-15.62a2.57,2.57,0,0,1-.47-.46l.15-.13h0c.54-.21,1.09-.4,1.61-.64l19.84-9,14.43-6.56a3.5,3.5,0,0,1,.46-.14Z" transform="translate(397.18 289.65)"/><path class="cls-5" d="M2019.47,480.6q-3,4.31-6.07,8.59l-30,42.29-.44.61-.23-.34a6,6,0,0,0,.14-.83v-29a4.35,4.35,0,0,0,.59-.25l35.39-20.9c.17-.1.36-.18.53-.27Z" transform="translate(397.18 289.65)"/><path class="cls-20" d="M1982.84,501.94v29a6,6,0,0,1-.14.83l-3.51-4.91c-1.55-2.18-3.11-4.36-4.66-6.55-1.3-1.84-2.6-3.69-3.91-5.53-2.72-3.82-5.46-7.64-8.17-11.47-2.3-3.24-4.58-6.49-6.87-9.73q-3.63-5.1-7.22-10.18l-1.94-2.76.09-.08c.72.4,1.46.79,2.17,1.21l8.45,5,11,6.53q5.47,3.24,11,6.46Z" transform="translate(397.18 289.65)"/><path class="cls-12" d="M1946.43,480.62l-.1-.15.19.07Z" transform="translate(397.18 289.65)"/><path class="cls-13" d="M1982.85,412.34h.14a.13.13,0,0,0-.07.05Z" transform="translate(397.18 289.65)"/><path class="cls-14" d="M1982.85,412.34h.07l-.14.09Z" transform="translate(397.18 289.65)"/><path class="cls-12" d="M1946.4,473l-.15.13Z" transform="translate(397.18 289.65)"/><path class="cls-15" d="M2019.35,480.52h.16v.12Z" transform="translate(397.18 289.65)"/><path class="cls-16" d="M1982.84,456.64h-.13l.14-.09A.78.78,0,0,0,1982.84,456.64Z" transform="translate(397.18 289.65)"/><path class="cls-9" d="M2335,419.78l.05-.1.15-.1h.06c1.24,2,2.46,4,3.68,6l32.68,54.24a3.35,3.35,0,0,1,.28.53l-1.79-.79L2360,474.89l-11.35-5.16c-3.81-1.73-7.6-3.47-11.41-5.19-.67-.31-1.37-.55-2.06-.83V420.35A1.81,1.81,0,0,0,2335,419.78Z" transform="translate(397.18 289.65)"/><path class="cls-10" d="M2335,419.78a1.82,1.82,0,0,1,.13.57v43.4h0l-.13.1a2.69,2.69,0,0,0-.46.14l-14.43,6.56-19.83,9c-.52.23-1.07.42-1.61.63a3.06,3.06,0,0,1,.27-.58q4.08-6.84,8.19-13.66c3-5,6-9.89,9-14.84q5-8.24,9.93-16.48l8.6-14.29C2334.79,420.17,2334.92,420,2335,419.78Z" transform="translate(397.18 289.65)"/><path class="cls-11" d="M2335.16,463.75c.69.28,1.39.52,2.06.83,3.81,1.72,7.6,3.46,11.41,5.19l11.35,5.16,10.17,4.63,1.79.79a3.39,3.39,0,0,1-.41.44l-13,7.68-22.75,13.44a3.25,3.25,0,0,1-.64.24V463.76Z" transform="translate(397.18 289.65)"/><path class="cls-9" d="M2335.16,463.88v38.29l-9.7-5.72-26.41-15.62a3,3,0,0,1-.47-.47l.16-.12h0c.54-.21,1.09-.4,1.61-.63l19.83-9,14.43-6.56a2.69,2.69,0,0,1,.46-.14Z" transform="translate(397.18 289.65)"/><path class="cls-9" d="M2371.8,487.82l-6.08,8.59-30,42.29c-.13.19-.27.38-.45.61L2335,539a6.17,6.17,0,0,0,.15-.84v-29a3.87,3.87,0,0,0,.59-.25l35.4-20.9c.17-.1.35-.18.53-.27Z" transform="translate(397.18 289.65)"/><path class="cls-10" d="M2335.16,509.16v29a6.17,6.17,0,0,1-.15.84c-1.17-1.64-2.34-3.27-3.49-4.9-1.56-2.18-3.12-4.37-4.66-6.56-1.31-1.84-2.6-3.69-3.91-5.53-2.73-3.83-5.46-7.64-8.18-11.47-2.3-3.24-4.57-6.49-6.87-9.73q-3.6-5.1-7.22-10.18l-1.93-2.76.08-.08c.73.4,1.46.79,2.18,1.21l8.44,5,11,6.53,11,6.46Z" transform="translate(397.18 289.65)"/><path class="cls-12" d="M2298.76,487.89l-.1-.15.18.07Z" transform="translate(397.18 289.65)"/><path class="cls-13" d="M2335.17,419.57h0Z" transform="translate(397.18 289.65)"/><path class="cls-14" d="M2335.17,419.57h.07l-.15.1Z" transform="translate(397.18 289.65)"/><path class="cls-12" d="M2298.73,480.22l-.16.12Z" transform="translate(397.18 289.65)"/><path class="cls-15" d="M2371.68,487.74h.16v.12Z" transform="translate(397.18 289.65)"/><path class="cls-16" d="M2335.16,463.88H2335l.13-.1Z" transform="translate(397.18 289.65)"/><path class="cls-17" d="M2036.7,488l0-.11.15-.09.06,0c1.23,2,2.46,4,3.68,6L2073.32,548c.11.17.19.35.28.52l-1.8-.78-10.16-4.63L2050.28,538c-3.8-1.73-7.59-3.47-11.4-5.19-.67-.31-1.37-.55-2.06-.83V488.55A1.81,1.81,0,0,0,2036.7,488Z" transform="translate(397.18 289.65)"/><path class="cls-18" d="M2036.7,488a1.81,1.81,0,0,1,.12.57V532h0l-.13.1a2,2,0,0,0-.47.14l-14.43,6.55-19.83,9c-.52.24-1.07.43-1.61.63a5,5,0,0,1,.27-.57q4.08-6.84,8.19-13.65,4.47-7.42,9-14.85,5-8.23,9.94-16.48l8.6-14.29C2036.44,488.37,2036.58,488.18,2036.7,488Z" transform="translate(397.18 289.65)"/><path class="cls-19" d="M2036.82,532c.69.28,1.39.52,2.06.83,3.81,1.72,7.6,3.46,11.4,5.19l11.36,5.15,10.16,4.63,1.8.78c-.14.15-.25.35-.41.44l-13,7.69-22.75,13.44a3.51,3.51,0,0,1-.64.24V532Z" transform="translate(397.18 289.65)"/><path class="cls-17" d="M2036.82,532.07v38.28l-9.71-5.72L2000.7,549a3.48,3.48,0,0,1-.47-.47l.16-.12h0c.54-.2,1.09-.39,1.61-.63l19.83-9,14.43-6.55a2,2,0,0,1,.47-.14Z" transform="translate(397.18 289.65)"/><path class="cls-17" d="M2073.46,556l-6.08,8.59-30,42.29c-.13.19-.27.37-.45.61l-.23-.34a4.91,4.91,0,0,0,.14-.84v-29a4.35,4.35,0,0,0,.59-.25l35.4-20.9c.17-.1.35-.18.53-.28Z" transform="translate(397.18 289.65)"/><path class="cls-18" d="M2036.82,577.36v29a4.91,4.91,0,0,1-.14.84l-3.5-4.9c-1.56-2.18-3.11-4.37-4.66-6.55l-3.92-5.53-8.17-11.48c-2.3-3.24-4.58-6.49-6.87-9.73q-3.6-5.1-7.22-10.18l-1.93-2.76.08-.08c.73.4,1.46.79,2.18,1.21q4.23,2.48,8.44,5l11,6.53,11,6.46Z" transform="translate(397.18 289.65)"/><path class="cls-12" d="M2000.41,556l-.1-.15.18.07Z" transform="translate(397.18 289.65)"/><path class="cls-13" d="M2036.83,487.77h0Z" transform="translate(397.18 289.65)"/><path class="cls-14" d="M2036.83,487.77h.07l-.15.09Z" transform="translate(397.18 289.65)"/><path class="cls-12" d="M2000.38,548.42l-.16.12Z" transform="translate(397.18 289.65)"/><path class="cls-15" d="M2073.34,555.9h.16V556Z" transform="translate(397.18 289.65)"/><path class="cls-16" d="M2036.82,532.07h-.13l.13-.1Z" transform="translate(397.18 289.65)"/><path class="cls-5" d="M2161.83,336.74v-.1l.15-.09.06-.05q1.85,3,3.68,6.05l32.69,54.23c.1.17.18.35.27.53l-1.79-.79-10.12-4.65-11.35-5.15c-3.81-1.73-7.6-3.47-11.41-5.19-.67-.3-1.37-.55-2.06-.82v-43.4A1.87,1.87,0,0,0,2161.83,336.74Z" transform="translate(397.18 289.65)"/><path class="cls-20" d="M2161.83,336.74a1.89,1.89,0,0,1,.13.57v43.42h0l-.13.09a2.69,2.69,0,0,0-.46.14L2147,387.52l-19.84,9c-.52.24-1.07.42-1.61.63a6.11,6.11,0,0,1,.27-.58q4.08-6.82,8.19-13.65l9-14.84,9.93-16.49,8.59-14.28C2161.57,337.14,2161.71,336.94,2161.83,336.74Z" transform="translate(397.18 289.65)"/><path class="cls-21" d="M2162,380.73c.69.27,1.39.52,2.06.82,3.81,1.72,7.6,3.46,11.41,5.19l11.35,5.13,10.17,4.63,1.79.79a2.43,2.43,0,0,1-.41.44l-13,7.68-22.75,13.47a4.41,4.41,0,0,1-.64.23V380.73Z" transform="translate(397.18 289.65)"/><path class="cls-5" d="M2162,380.87v38.29l-9.7-5.73q-13.23-7.8-26.41-15.62a3.41,3.41,0,0,1-.47-.46l.16-.13h0c.54-.21,1.09-.39,1.61-.63l19.84-9L2161.4,381a2.69,2.69,0,0,1,.46-.14Z" transform="translate(397.18 289.65)"/><path class="cls-5" d="M2198.57,404.78l-6.08,8.59q-15,21.17-30,42.29c-.13.19-.27.38-.45.61l-.23-.34a3.91,3.91,0,0,0,.15-.83v-29a5.22,5.22,0,0,0,.59-.25L2198,405c.17-.1.35-.18.53-.27Z" transform="translate(397.18 289.65)"/><path class="cls-20" d="M2162,426.13v29a3.91,3.91,0,0,1-.15.83l-3.5-4.9q-2.34-3.27-4.65-6.55c-1.31-1.84-2.6-3.69-3.91-5.53q-4.11-5.73-8.18-11.47c-2.3-3.24-4.57-6.49-6.87-9.73l-7.22-10.19-1.93-2.76.08-.08c.73.4,1.46.79,2.18,1.21l8.44,5,11,6.54,11,6.46Z" transform="translate(397.18 289.65)"/><path class="cls-12" d="M2125.58,404.8l-.1-.15.18.07Z" transform="translate(397.18 289.65)"/><path class="cls-13" d="M2162,336.53h.13l-.06.05Z" transform="translate(397.18 289.65)"/><path class="cls-14" d="M2162,336.53h.07l-.15.09Z" transform="translate(397.18 289.65)"/><path class="cls-12" d="M2125.52,397.18l-.16.13Z" transform="translate(397.18 289.65)"/><path class="cls-15" d="M2198.47,404.7h.16v.12Z" transform="translate(397.18 289.65)"/><path class="cls-16" d="M2162,380.87h-.13l.13-.09Z" transform="translate(397.18 289.65)"/><path class="cls-9" d="M2149.63,644.48v-.11l.14-.09.07,0c1.22,2,2.46,4,3.67,6l32.68,54.24c.1.17.18.35.27.52-.59-.26-1.2-.51-1.79-.78l-10.1-4.63-11.36-5.16-11.39-5.19c-.68-.31-1.38-.55-2.07-.83v-43.4A4.78,4.78,0,0,0,2149.63,644.48Z" transform="translate(397.18 289.65)"/><path class="cls-10" d="M2149.63,644.48a4.78,4.78,0,0,1,.12.57v43.4h0l-.14.1a3.09,3.09,0,0,0-.46.14l-14.43,6.55-19.84,9c-.52.24-1.07.43-1.61.63a5,5,0,0,1,.27-.57l8.19-13.66,9-14.84,9.93-16.48,8.61-14.29C2149.37,644.92,2149.5,644.68,2149.63,644.48Z" transform="translate(397.18 289.65)"/><path class="cls-11" d="M2149.74,688.45c.69.28,1.39.52,2.07.83l11.39,5.19,11.37,5.16,10.16,4.63c.59.27,1.2.52,1.79.78a1.72,1.72,0,0,1-.41.44l-13,7.69-22.74,13.44a4.06,4.06,0,0,1-.63.24V688.46Z" transform="translate(397.18 289.65)"/><path class="cls-9" d="M2149.74,688.56v38.29l-9.72-5.72-26.44-15.62a2.33,2.33,0,0,1-.47-.47l.15-.12h0c.54-.2,1.09-.39,1.61-.63l19.84-9,14.43-6.56a3.09,3.09,0,0,1,.46-.14Z" transform="translate(397.18 289.65)"/><path class="cls-9" d="M2186.37,712.52q-3,4.29-6.07,8.59l-30,42.29-.44.61-.23-.34a6.13,6.13,0,0,0,.14-.84v-29a3.37,3.37,0,0,0,.59-.25l35.39-20.9c.17-.1.36-.18.53-.28Z" transform="translate(397.18 289.65)"/><path class="cls-10" d="M2149.74,733.86v29a6.13,6.13,0,0,1-.14.84l-3.51-4.9c-1.55-2.18-3.11-4.36-4.66-6.55q-1.95-2.78-3.91-5.54c-2.72-3.83-5.46-7.64-8.17-11.47-2.3-3.24-4.58-6.49-6.87-9.73l-7.22-10.18-1.94-2.76.09-.08c.72.4,1.46.79,2.17,1.21q4.23,2.48,8.45,5l11,6.53c3.65,2.16,7.32,4.3,11,6.46Z" transform="translate(397.18 289.65)"/><path class="cls-12" d="M2113.33,712.54l-.1-.15.19.07Z" transform="translate(397.18 289.65)"/><path class="cls-13" d="M2149.75,644.27h.14l-.07.05Z" transform="translate(397.18 289.65)"/><path class="cls-14" d="M2149.75,644.27h.07l-.14.09Z" transform="translate(397.18 289.65)"/><path class="cls-12" d="M2113.3,704.93l-.15.12Z" transform="translate(397.18 289.65)"/><path class="cls-15" d="M2186.25,712.43h.16v.12Z" transform="translate(397.18 289.65)"/><path class="cls-16" d="M2149.74,688.56h-.16l.14-.1A.56.56,0,0,1,2149.74,688.56Z" transform="translate(397.18 289.65)"/><path class="cls-17" d="M2167.44,488l0-.11.14-.09a.13.13,0,0,0,.07,0c1.23,2,2.46,4,3.68,6L2204.06,548c.1.17.19.35.28.52l-1.8-.78-10.16-4.63L2181,538c-3.8-1.73-7.59-3.47-11.4-5.19-.67-.31-1.37-.55-2.06-.83V488.55A2.62,2.62,0,0,0,2167.44,488Z" transform="translate(397.18 289.65)"/><path class="cls-18" d="M2167.44,488a2.62,2.62,0,0,1,.12.57V532h0l-.13.1a2.1,2.1,0,0,0-.47.14l-14.38,6.56-19.83,9c-.53.24-1.07.43-1.61.63a5,5,0,0,1,.27-.57q4.08-6.84,8.18-13.65l9-14.85q5-8.24,9.93-16.48l8.6-14.29A2.78,2.78,0,0,1,2167.44,488Z" transform="translate(397.18 289.65)"/><path class="cls-19" d="M2167.57,532c.69.28,1.39.52,2.06.83,3.81,1.72,7.6,3.46,11.4,5.19l11.36,5.15,10.16,4.63,1.8.78c-.14.15-.25.35-.42.44q-6.48,3.85-13,7.69l-22.75,13.44a3.51,3.51,0,0,1-.64.24V532Z" transform="translate(397.18 289.65)"/><path class="cls-17" d="M2167.57,532.07v38.28l-9.72-5.72L2131.46,549a3,3,0,0,1-.47-.47l.15-.12h0c.54-.2,1.08-.39,1.61-.63l19.83-9,14.42-6.55a2.1,2.1,0,0,1,.47-.14Z" transform="translate(397.18 289.65)"/><path class="cls-17" d="M2204.2,556l-6.08,8.59-30,42.29-.45.61-.23-.34a4.1,4.1,0,0,0,.14-.84v-29a3.07,3.07,0,0,0,.59-.25l35.41-20.9c.17-.1.35-.18.53-.28Z" transform="translate(397.18 289.65)"/><path class="cls-18" d="M2167.57,577.36v29a4.1,4.1,0,0,1-.14.84q-1.75-2.45-3.5-4.9c-1.56-2.18-3.11-4.37-4.65-6.55l-3.92-5.53-8.17-11.48c-2.3-3.24-4.58-6.49-6.87-9.73q-3.6-5.1-7.22-10.18l-1.94-2.76.09-.08c.73.4,1.46.79,2.18,1.21q4.21,2.48,8.44,5l11,6.53,11,6.46C2165.08,575.9,2166.31,576.62,2167.57,577.36Z" transform="translate(397.18 289.65)"/><path class="cls-12" d="M2131.15,556l-.09-.15.18.07Z" transform="translate(397.18 289.65)"/><path class="cls-13" d="M2167.57,487.77h0Z" transform="translate(397.18 289.65)"/><path class="cls-14" d="M2167.57,487.77h.06l-.14.09Z" transform="translate(397.18 289.65)"/><path class="cls-12" d="M2131.12,548.42l-.15.12Z" transform="translate(397.18 289.65)"/><path class="cls-15" d="M2204.08,555.9h.16V556Z" transform="translate(397.18 289.65)"/><path class="cls-16" d="M2167.57,532.07h-.13l.13-.1Z" transform="translate(397.18 289.65)"/><path class="cls-5" d="M2106.58,257.09l.05-.1.14-.09.07,0c1.23,2,2.46,4,3.68,6l32.68,54.23c.1.17.19.35.28.53l-1.8-.79c-3.38-1.54-6.77-3.09-10.16-4.62-3.78-1.73-7.57-3.44-11.36-5.16l-11.4-5.2c-.67-.3-1.37-.55-2.06-.82V257.66A2.62,2.62,0,0,0,2106.58,257.09Z" transform="translate(397.18 289.65)"/><path class="cls-20" d="M2106.58,257.09a2.62,2.62,0,0,1,.12.57v43.41h0l-.13.09-.47.14-14.44,6.56-19.83,9c-.53.24-1.07.42-1.61.63a6.11,6.11,0,0,1,.27-.58q4.08-6.82,8.18-13.65,4.48-7.44,9-14.85,5-8.24,9.94-16.48,4.29-7.14,8.6-14.28C2106.31,257.49,2106.44,257.29,2106.58,257.09Z" transform="translate(397.18 289.65)"/><path class="cls-21" d="M2106.69,301.07c.69.27,1.39.52,2.06.82l11.4,5.2c3.79,1.72,7.58,3.43,11.36,5.16,3.39,1.53,6.78,3.08,10.16,4.62l1.8.79a2.49,2.49,0,0,1-.42.44q-6.48,3.86-13,7.68l-22.75,13.45a3.07,3.07,0,0,1-.64.23V301.08Z" transform="translate(397.18 289.65)"/><path class="cls-5" d="M2106.69,301.17v38.29l-9.72-5.72-26.39-15.62a3.41,3.41,0,0,1-.47-.46l.15-.13h0c.54-.21,1.08-.39,1.61-.63l19.83-9,14.43-6.57.47-.14Z" transform="translate(397.18 289.65)"/><path class="cls-5" d="M2143.33,325.13q-3,4.31-6.08,8.6l-30,42.28-.45.62-.23-.35a4.64,4.64,0,0,0,.14-.83v-29a3.37,3.37,0,0,0,.59-.25l35.41-20.9c.17-.1.35-.18.53-.27Z" transform="translate(397.18 289.65)"/><path class="cls-20" d="M2106.68,346.47v29a4.64,4.64,0,0,1-.14.83l-3.5-4.89-4.66-6.55c-1.31-1.85-2.61-3.71-3.92-5.55l-8.17-11.47c-2.3-3.23-4.58-6.48-6.87-9.73l-7.22-10.18c-.65-.91-1.29-1.84-1.94-2.75l.09-.09c.73.4,1.46.79,2.17,1.21l8.45,5,11,6.53,11,6.46C2104.21,345,2105.44,345.74,2106.68,346.47Z" transform="translate(397.18 289.65)"/><path class="cls-12" d="M2070.27,325.16l-.1-.16.19.07Z" transform="translate(397.18 289.65)"/><path class="cls-13" d="M2106.7,256.85h.13l-.07,0Z" transform="translate(397.18 289.65)"/><path class="cls-14" d="M2106.7,256.85h.06l-.14.09Z" transform="translate(397.18 289.65)"/><path class="cls-12" d="M2070.24,317.53l-.15.13Z" transform="translate(397.18 289.65)"/><path class="cls-15" d="M2143.21,325.05h.15v.12Z" transform="translate(397.18 289.65)"/><path class="cls-16" d="M2106.69,301.17h-.11l.13-.09Z" transform="translate(397.18 289.65)"/><path class="cls-9" d="M2110.58,413.51l.05-.1.14-.1h.07c1.23,2,2.46,4,3.68,6.06l32.68,54.23c.1.17.19.35.28.53l-1.8-.79-10.16-4.64-11.36-5.15-11.4-5.19c-.67-.3-1.37-.55-2.06-.83V414.12A3.29,3.29,0,0,0,2110.58,413.51Z" transform="translate(397.18 289.65)"/><path class="cls-10" d="M2110.58,413.51a2.9,2.9,0,0,1,.12.57v43.41h0l-.13.1-.47.14-14.43,6.56-19.83,9c-.53.23-1.07.42-1.61.63.09-.2.16-.4.26-.58l8.19-13.66,9-14.84q5-8.24,9.93-16.48l8.61-14.29A2.36,2.36,0,0,1,2110.58,413.51Z" transform="translate(397.18 289.65)"/><path class="cls-11" d="M2110.68,457.49c.69.28,1.39.53,2.06.83,3.8,1.72,7.6,3.46,11.4,5.19l11.36,5.15,10.16,4.64,1.8.79a2.49,2.49,0,0,1-.42.44l-13,7.68-22.75,13.44a3.81,3.81,0,0,1-.64.24V457.5Z" transform="translate(397.18 289.65)"/><path class="cls-9" d="M2110.68,457.6v38.29l-9.72-5.72-26.38-15.62a4.09,4.09,0,0,1-.47-.46l.15-.13h0c.54-.21,1.08-.4,1.61-.63l19.83-9,14.43-6.56.47-.14Z" transform="translate(397.18 289.65)"/><path class="cls-9" d="M2147.31,481.56q-3,4.31-6.07,8.59l-30,42.29-.45.61-.23-.34a6,6,0,0,0,.14-.83v-29a4.35,4.35,0,0,0,.59-.25l35.41-20.9c.17-.1.35-.18.53-.27Z" transform="translate(397.18 289.65)"/><path class="cls-10" d="M2110.67,502.89v29a6,6,0,0,1-.14.83l-3.51-4.91-4.65-6.55-3.92-5.53c-2.72-3.83-5.45-7.64-8.17-11.47-2.3-3.24-4.58-6.49-6.87-9.73l-7.22-10.18-1.94-2.76.09-.08c.73.4,1.46.79,2.17,1.21q4.23,2.49,8.45,5l11,6.53,11,6.46Z" transform="translate(397.18 289.65)"/><path class="cls-12" d="M2074.26,481.58l-.1-.15.19.07Z" transform="translate(397.18 289.65)"/><path class="cls-13" d="M2110.69,413.3h0Z" transform="translate(397.18 289.65)"/><path class="cls-14" d="M2110.69,413.3h.06l-.14.1Z" transform="translate(397.18 289.65)"/><path class="cls-12" d="M2074.23,474l-.15.13Z" transform="translate(397.18 289.65)"/><path class="cls-15" d="M2147.2,481.48h.15v.12Z" transform="translate(397.18 289.65)"/><path class="cls-16" d="M2110.68,457.6h-.1l.13-.1Z" transform="translate(397.18 289.65)"/><path class="cls-5" d="M2216.68,579.39v-.1l.15-.1h.06q1.84,3,3.68,6l32.69,54.24c.1.17.18.35.27.53l-1.79-.79-10.17-4.64-11.35-5.15c-3.81-1.73-7.6-3.47-11.41-5.19-.67-.3-1.37-.55-2.06-.83V580A2.22,2.22,0,0,0,2216.68,579.39Z" transform="translate(397.18 289.65)"/><path class="cls-20" d="M2216.68,579.39a2.35,2.35,0,0,1,.13.57v43.41h0l-.13.1a2.44,2.44,0,0,0-.46.14q-7.23,3.27-14.43,6.56l-19.84,9c-.52.23-1.07.42-1.61.64a6.28,6.28,0,0,1,.27-.59l8.19-13.65c3-5,6-9.89,9-14.84l9.93-16.48,8.6-14.29C2216.43,579.78,2216.57,579.59,2216.68,579.39Z" transform="translate(397.18 289.65)"/><path class="cls-21" d="M2216.8,623.37c.69.28,1.39.53,2.06.83,3.81,1.72,7.6,3.46,11.41,5.19l11.35,5.15,10.17,4.64,1.79.79a2.85,2.85,0,0,1-.41.44l-13,7.68-22.75,13.44a3.51,3.51,0,0,1-.64.24V623.38Z" transform="translate(397.18 289.65)"/><path class="cls-5" d="M2216.8,623.48v38.29l-9.71-5.72q-13.22-7.8-26.41-15.62a3.48,3.48,0,0,1-.47-.47l.16-.12h0c.54-.21,1.09-.4,1.61-.63l19.84-9,14.43-6.56a2.44,2.44,0,0,1,.46-.14Z" transform="translate(397.18 289.65)"/><path class="cls-5" d="M2253.44,647.44l-6.08,8.59-30,42.29c-.13.19-.27.38-.45.61l-.23-.34a6,6,0,0,0,.15-.83V668.83a4.35,4.35,0,0,0,.59-.25l35.4-20.9c.17-.1.35-.18.53-.27Z" transform="translate(397.18 289.65)"/><path class="cls-20" d="M2216.8,668.78v29a6,6,0,0,1-.15.83c-1.17-1.64-2.34-3.27-3.5-4.91q-2.34-3.27-4.66-6.55c-1.31-1.84-2.6-3.69-3.91-5.53-2.73-3.83-5.46-7.64-8.18-11.47-2.3-3.24-4.57-6.49-6.87-9.73l-7.22-10.18-1.93-2.76.08-.08c.73.4,1.46.79,2.18,1.21l8.44,5,11,6.53,11,6.46Z" transform="translate(397.18 289.65)"/><path class="cls-12" d="M2180.39,647.46l-.1-.15.18.07Z" transform="translate(397.18 289.65)"/><path class="cls-13" d="M2216.81,579.18h0Z" transform="translate(397.18 289.65)"/><path class="cls-14" d="M2216.81,579.18h.07l-.15.1Z" transform="translate(397.18 289.65)"/><path class="cls-12" d="M2180.36,639.84l-.16.12Z" transform="translate(397.18 289.65)"/><path class="cls-15" d="M2253.32,647.36h.16v.12Z" transform="translate(397.18 289.65)"/><path class="cls-16" d="M2216.8,623.48h-.13l.13-.1Z" transform="translate(397.18 289.65)"/><path class="cls-9" d="M2041.58,346v-.1l.14-.09.06,0c1.23,2,2.47,4,3.68,6L2078.15,406c.1.17.18.35.27.53l-1.79-.79-10.05-4.62L2055.22,396l-11.4-5.19c-.68-.3-1.38-.55-2.07-.82a.49.49,0,0,0,0-.17V346.53A3.08,3.08,0,0,0,2041.58,346Z" transform="translate(397.18 289.65)"/><path class="cls-10" d="M2041.58,346a2.9,2.9,0,0,1,.12.57v43.25a.49.49,0,0,1,0,.17h0l-.14.09a4,4,0,0,0-.46.14l-14.43,6.56-19.84,9c-.52.24-1.07.42-1.61.63.08-.19.17-.39.27-.58q4.11-6.81,8.19-13.64c3-5,6-9.9,9-14.85l9.9-16.44,8.61-14.28A4.45,4.45,0,0,0,2041.58,346Z" transform="translate(397.18 289.65)"/><path class="cls-11" d="M2041.72,390c.69.27,1.39.52,2.07.82l11.4,5.19,11.36,5.16,10.16,4.62,1.79.79a1.72,1.72,0,0,1-.41.44l-13,7.68-22.75,13.46a4.29,4.29,0,0,1-.63.23V390Z" transform="translate(397.18 289.65)"/><path class="cls-9" d="M2041.72,390.05v38.29l-9.72-5.72L2005.58,407a2.55,2.55,0,0,1-.47-.46l.15-.13h0c.54-.21,1.09-.39,1.61-.63l19.84-9,14.43-6.56a4,4,0,0,1,.46-.14Z" transform="translate(397.18 289.65)"/><path class="cls-9" d="M2078.36,414q-3,4.32-6.07,8.61l-30,42.27-.44.62-.24-.35a3.91,3.91,0,0,0,.15-.83v-29a4.35,4.35,0,0,0,.59-.25l35.4-20.91c.17-.1.35-.18.53-.27Z" transform="translate(397.18 289.65)"/><path class="cls-10" d="M2041.72,435.35v29a3.91,3.91,0,0,1-.15.83l-3.5-4.89c-1.55-2.19-3.11-4.37-4.66-6.55-1.31-1.85-2.6-3.7-3.91-5.54-2.72-3.82-5.46-7.64-8.18-11.47-2.29-3.23-4.57-6.48-6.87-9.73s-4.81-6.78-7.21-10.19c-.65-.91-1.3-1.84-1.94-2.75l.09-.09c.72.4,1.46.79,2.17,1.21l8.45,5,11,6.53q5.48,3.24,11,6.46Z" transform="translate(397.18 289.65)"/><path class="cls-12" d="M2005.31,414l-.1-.15.19.06Z" transform="translate(397.18 289.65)"/><path class="cls-13" d="M2041.73,345.75h.13l-.06.05Z" transform="translate(397.18 289.65)"/><path class="cls-14" d="M2041.73,345.75h.07l-.14.09Z" transform="translate(397.18 289.65)"/><path class="cls-12" d="M2005.28,406.4l-.15.13Z" transform="translate(397.18 289.65)"/><path class="cls-15" d="M2078.24,413.92h.16V414Z" transform="translate(397.18 289.65)"/><path class="cls-16" d="M2041.72,390.05h-.14l.14-.09Z" transform="translate(397.18 289.65)"/><path class="cls-17" d="M2094.81,564.26l.05-.11.15-.09h.06q1.84,3,3.68,6l32.68,54.24c.11.17.19.35.28.52-.6-.26-1.2-.51-1.79-.78l-10.17-4.63-11.35-5.15c-3.81-1.73-7.6-3.47-11.41-5.19-.67-.31-1.37-.55-2.06-.83V564.83A2.9,2.9,0,0,0,2094.81,564.26Z" transform="translate(397.18 289.65)"/><path class="cls-18" d="M2094.81,564.26a2.35,2.35,0,0,1,.13.57v43.41h0l-.13.1a2.54,2.54,0,0,0-.47.14L2079.91,615l-19.83,9c-.52.24-1.07.43-1.61.63q.12-.28.27-.57,4.08-6.83,8.19-13.65l9-14.84q5-8.25,9.94-16.49l8.6-14.29C2094.58,564.65,2094.69,564.46,2094.81,564.26Z" transform="translate(397.18 289.65)"/><path class="cls-19" d="M2094.93,608.24c.69.28,1.39.52,2.06.83,3.81,1.72,7.6,3.46,11.41,5.19l11.35,5.15,10.17,4.63c.59.27,1.19.52,1.79.78-.14.15-.25.35-.41.44l-13,7.69-22.72,13.45c-.21.09-.42.17-.64.24V608.25Z" transform="translate(397.18 289.65)"/><path class="cls-17" d="M2094.93,608.35v38.29l-9.71-5.72-26.41-15.63a3,3,0,0,1-.47-.47l.16-.12h0c.54-.2,1.09-.39,1.61-.63l19.83-9,14.43-6.55a2.54,2.54,0,0,1,.47-.14Z" transform="translate(397.18 289.65)"/><path class="cls-17" d="M2131.58,632.3l-6.08,8.6-30,42.28c-.13.19-.27.37-.45.61l-.23-.34a4.6,4.6,0,0,0,.14-.84v-29a6.14,6.14,0,0,0,.59-.25l35.4-20.91c.17-.1.35-.18.53-.28Z" transform="translate(397.18 289.65)"/><path class="cls-18" d="M2094.93,653.65v29a4.6,4.6,0,0,1-.14.84c-1.17-1.62-2.34-3.26-3.5-4.9q-2.34-3.27-4.66-6.55c-1.31-1.84-2.6-3.69-3.92-5.53-2.72-3.83-5.45-7.64-8.17-11.47-2.3-3.24-4.58-6.49-6.87-9.73q-3.6-5.1-7.22-10.19l-1.93-2.76.08-.08c.73.4,1.46.79,2.18,1.21q4.23,2.49,8.44,5l11,6.54,11,6.46Z" transform="translate(397.18 289.65)"/><path class="cls-12" d="M2058.52,632.32l-.1-.15.18.07Z" transform="translate(397.18 289.65)"/><path class="cls-13" d="M2094.94,564.05h0Z" transform="translate(397.18 289.65)"/><path class="cls-14" d="M2094.94,564.05h.07l-.15.09Z" transform="translate(397.18 289.65)"/><path class="cls-12" d="M2058.49,624.7l-.16.12Z" transform="translate(397.18 289.65)"/><path class="cls-15" d="M2131.45,632.21h.16v.12Z" transform="translate(397.18 289.65)"/><path class="cls-16" d="M2094.93,608.35h-.13l.13-.1Z" transform="translate(397.18 289.65)"/><path class="cls-5" d="M2279,329.69v-.11l.14-.09.07-.05c1.22,2,2.46,4,3.68,6.05l32.68,54.24c.1.17.18.35.27.52-.59-.26-1.2-.51-1.79-.78l-10.11-4.6-11.38-5.18-11.4-5.19c-.68-.31-1.38-.55-2.07-.83V330.26A2.82,2.82,0,0,0,2279,329.69Z" transform="translate(397.18 289.65)"/><path class="cls-20" d="M2279,329.69a2.75,2.75,0,0,1,.12.57v43.41h0l-.14.1a2.44,2.44,0,0,0-.46.14l-14.43,6.55-19.83,9c-.53.24-1.08.43-1.61.63a3.68,3.68,0,0,1,.26-.57l8.19-13.65,9-14.85,9.93-16.48,8.61-14.29A5.86,5.86,0,0,1,2279,329.69Z" transform="translate(397.18 289.65)"/><path class="cls-21" d="M2279.12,373.67c.69.28,1.39.52,2.07.83l11.4,5.19,11.36,5.15,10.16,4.63c.59.27,1.2.52,1.79.78a2.16,2.16,0,0,1-.41.44q-6.48,3.85-13,7.69l-22.73,13.49a3.81,3.81,0,0,1-.64.24V373.68Z" transform="translate(397.18 289.65)"/><path class="cls-5" d="M2279.12,373.78v38.28l-9.72-5.73L2243,390.72a2.1,2.1,0,0,1-.47-.47l.15-.12h0c.53-.2,1.08-.39,1.61-.63l19.83-9,14.43-6.55a2.44,2.44,0,0,1,.46-.14Z" transform="translate(397.18 289.65)"/><path class="cls-5" d="M2315.76,397.73q-3,4.29-6.07,8.59l-30,42.29-.45.61-.23-.34a4.75,4.75,0,0,0,.14-.84v-29a6.14,6.14,0,0,0,.59-.25l35.4-20.91c.17-.1.36-.19.53-.28Z" transform="translate(397.18 289.65)"/><path class="cls-20" d="M2279.12,419.08v29a4.75,4.75,0,0,1-.14.84l-3.51-4.9c-1.55-2.18-3.11-4.36-4.66-6.55-1.3-1.84-2.6-3.69-3.91-5.53-2.72-3.83-5.46-7.65-8.17-11.47-2.3-3.24-4.58-6.5-6.87-9.74l-7.22-10.18-1.94-2.76.09-.09c.72.41,1.46.8,2.17,1.22q4.23,2.49,8.45,5l11,6.53,11,6.46Z" transform="translate(397.18 289.65)"/><path class="cls-12" d="M2242.71,397.75l-.1-.15.19.06Z" transform="translate(397.18 289.65)"/><path class="cls-13" d="M2279.14,329.48h.13l-.07,0Z" transform="translate(397.18 289.65)"/><path class="cls-14" d="M2279.14,329.48h.06l-.14.09Z" transform="translate(397.18 289.65)"/><path class="cls-12" d="M2242.68,390.13l-.15.12Z" transform="translate(397.18 289.65)"/><path class="cls-15" d="M2315.64,397.64h.16v.12Z" transform="translate(397.18 289.65)"/><path class="cls-16" d="M2279.12,373.78H2279l.14-.1S2279.12,373.75,2279.12,373.78Z" transform="translate(397.18 289.65)"/><path class="cls-9" d="M2272.47,490.59v-.11l.14-.09h.07c1.22,2,2.46,4,3.68,6L2309,550.63c.1.17.18.35.27.52-.59-.26-1.2-.51-1.79-.78l-10.16-4.63L2286,540.59c-3.8-1.73-7.6-3.47-11.4-5.19-.68-.31-1.38-.55-2.07-.83V491.16A2.76,2.76,0,0,0,2272.47,490.59Z" transform="translate(397.18 289.65)"/><path class="cls-10" d="M2272.47,490.59a2.62,2.62,0,0,1,.12.57v43.41h0l-.14.1a2.44,2.44,0,0,0-.46.14l-14.42,6.56-19.83,9c-.53.24-1.08.43-1.61.64a3.79,3.79,0,0,1,.26-.58l8.19-13.65,9-14.85,9.93-16.48,8.61-14.29A6.31,6.31,0,0,1,2272.47,490.59Z" transform="translate(397.18 289.65)"/><path class="cls-11" d="M2272.57,534.57c.69.28,1.39.52,2.07.83,3.8,1.72,7.6,3.46,11.4,5.19l11.36,5.15,10.16,4.63c.59.27,1.2.52,1.79.78a1.72,1.72,0,0,1-.41.44q-6.48,3.85-13,7.69l-22.74,13.44a3.81,3.81,0,0,1-.64.24V534.58Z" transform="translate(397.18 289.65)"/><path class="cls-9" d="M2272.57,534.68V573l-9.72-5.72-26.4-15.62a2.1,2.1,0,0,1-.47-.47l.15-.12h0c.53-.21,1.08-.4,1.61-.64l19.83-9,14.43-6.55a2.44,2.44,0,0,1,.46-.14Z" transform="translate(397.18 289.65)"/><path class="cls-9" d="M2309.22,558.63q-3,4.29-6.07,8.59l-30,42.29-.45.61-.23-.34a4.91,4.91,0,0,0,.14-.84V580a3.37,3.37,0,0,0,.59-.25l35.4-20.9c.17-.1.36-.18.53-.28Z" transform="translate(397.18 289.65)"/><path class="cls-10" d="M2272.57,580v29a4.91,4.91,0,0,1-.14.84l-3.51-4.9c-1.55-2.18-3.11-4.36-4.66-6.55-1.3-1.84-2.6-3.69-3.91-5.53-2.72-3.83-5.46-7.64-8.17-11.48-2.3-3.24-4.58-6.49-6.87-9.73l-7.22-10.18-1.94-2.76.09-.08c.72.4,1.46.79,2.17,1.21l8.45,5,11,6.53,11,6.46Z" transform="translate(397.18 289.65)"/><path class="cls-12" d="M2236.17,558.65l-.1-.15.19.07Z" transform="translate(397.18 289.65)"/><path class="cls-13" d="M2272.57,490.38h0Z" transform="translate(397.18 289.65)"/><path class="cls-14" d="M2272.57,490.38h.06l-.14.09Z" transform="translate(397.18 289.65)"/><path class="cls-12" d="M2236.14,551l-.15.12Z" transform="translate(397.18 289.65)"/><path class="cls-15" d="M2309.1,558.54h.16v.12Z" transform="translate(397.18 289.65)"/><path class="cls-16" d="M2272.57,534.68h-.13l.14-.1A.38.38,0,0,1,2272.57,534.68Z" transform="translate(397.18 289.65)"/><path class="cls-9" d="M2331.9,720.93l-.05-.1-.14-.09h-.07l-3.66,6-32.55,54c-.1.17-.18.35-.27.52l1.79-.78,10.12-4.61,11.31-5.13,11.35-5.17c.68-.3,1.37-.55,2.06-.82V721.47A2,2,0,0,1,2331.9,720.93Z" transform="translate(397.18 289.65)"/><path class="cls-10" d="M2331.9,720.93a2.23,2.23,0,0,0-.12.57v43.21h0l.12.09a2.44,2.44,0,0,1,.46.14l14.37,6.53,19.76,9c.52.23,1.07.42,1.6.62-.09-.19-.16-.39-.26-.57l-8.16-13.59c-3-4.94-6-9.86-8.94-14.79l-9.9-16.42-8.56-14.23Z" transform="translate(397.18 289.65)"/><path class="cls-11" d="M2331.78,764.71c-.69.27-1.37.52-2.06.82l-11.34,5.17-11.31,5.13L2297,780.44l-1.79.78a1.72,1.72,0,0,0,.41.44q6.46,3.84,12.94,7.65l22.64,13.39a2.62,2.62,0,0,0,.64.24V764.72Z" transform="translate(397.18 289.65)"/><path class="cls-9" d="M2331.78,764.81v38.13l9.67-5.7,26.3-15.56a2.56,2.56,0,0,0,.47-.46l-.15-.12h0c-.53-.2-1.08-.39-1.6-.62l-19.76-9-14.34-6.54a2.44,2.44,0,0,0-.46-.14Z" transform="translate(397.18 289.65)"/><path class="cls-9" d="M2295.3,788.67c2,2.85,4,5.71,6,8.55q15,21.07,29.89,42.12c.14.19.27.38.45.61l.23-.34a5.77,5.77,0,0,1-.15-.83V809.93c-.2-.07-.39-.16-.59-.25l-35.24-20.82c-.17-.1-.36-.19-.53-.28Z" transform="translate(397.18 289.65)"/><path class="cls-10" d="M2331.78,810V838.8a5.77,5.77,0,0,0,.15.83l3.49-4.88,4.64-6.52c1.3-1.84,2.59-3.68,3.89-5.51l8.15-11.43c2.28-3.22,4.55-6.47,6.84-9.69l7.19-10.15c.64-.91,1.28-1.83,1.93-2.74l-.09-.09c-.72.41-1.45.79-2.17,1.21l-8.41,5-11,6.5c-3.65,2.16-7.3,4.29-10.94,6.45Z" transform="translate(397.18 289.65)"/><path class="cls-12" d="M2368.05,788.69l.09-.15-.18.06Z" transform="translate(397.18 289.65)"/><path class="cls-13" d="M2331.77,720.69h0Z" transform="translate(397.18 289.65)"/><path class="cls-14" d="M2331.77,720.69h-.07l.15.09Z" transform="translate(397.18 289.65)"/><path class="cls-12" d="M2368.08,781.1l.15.12Z" transform="translate(397.18 289.65)"/><path class="cls-15" d="M2295.42,788.58h-.16v.13Z" transform="translate(397.18 289.65)"/><path class="cls-16" d="M2331.78,764.81h.13l-.13-.09Z" transform="translate(397.18 289.65)"/><path class="cls-17" d="M2267.65,652v-.11l-.14-.09h-.07c-1.22,2-2.45,4-3.66,6l-32.55,54c-.1.17-.19.35-.28.53l1.79-.78,10.12-4.61,11.31-5.14c3.79-1.72,7.57-3.45,11.36-5.16.67-.31,1.37-.55,2-.83V652.56A2.79,2.79,0,0,1,2267.65,652Z" transform="translate(397.18 289.65)"/><path class="cls-18" d="M2267.65,652a2.66,2.66,0,0,0-.12.56v43.24h0l.13.1a2,2,0,0,1,.47.14l14.37,6.53,19.75,9c.52.24,1.07.42,1.61.63a5,5,0,0,0-.27-.57q-4.08-6.81-8.16-13.6l-8.94-14.79-9.92-16.42L2268,652.57A4,4,0,0,0,2267.65,652Z" transform="translate(397.18 289.65)"/><path class="cls-19" d="M2267.57,695.78c-.68.28-1.38.52-2.05.83-3.79,1.71-7.57,3.44-11.36,5.16l-11.35,5.16-10.12,4.61-1.79.78a2.85,2.85,0,0,0,.41.44l12.94,7.65,22.66,13.39a2.8,2.8,0,0,0,.63.23V695.81Z" transform="translate(397.18 289.65)"/><path class="cls-17" d="M2267.57,695.93v38.12l9.68-5.7,26.29-15.55a2.92,2.92,0,0,0,.47-.46l-.15-.13h0c-.54-.21-1.09-.39-1.61-.63l-19.75-9-14.37-6.53a2,2,0,0,0-.47-.14Z" transform="translate(397.18 289.65)"/><path class="cls-17" d="M2231,719.74l6.05,8.56L2267,770.42l.44.61.23-.34a4.91,4.91,0,0,1-.14-.84V741a4.35,4.35,0,0,1-.59-.25l-35.25-20.82c-.17-.1-.35-.18-.53-.27Z" transform="translate(397.18 289.65)"/><path class="cls-18" d="M2267.57,741v28.85a4.91,4.91,0,0,0,.14.84l3.49-4.88,4.64-6.53c1.3-1.83,2.59-3.67,3.9-5.51l8.14-11.43c2.29-3.22,4.56-6.46,6.84-9.69l7.19-10.14c.65-.91,1.29-1.83,1.93-2.75l-.09-.08c-.72.4-1.45.79-2.16,1.21q-4.22,2.48-8.41,5c-3.66,2.16-7.3,4.34-11,6.5s-7.29,4.29-10.94,6.43C2270,739.52,2268.77,740.26,2267.57,741Z" transform="translate(397.18 289.65)"/><path class="cls-12" d="M2303.8,719.76l.1-.15-.19.07Z" transform="translate(397.18 289.65)"/><path class="cls-13" d="M2267.57,651.77h0Z" transform="translate(397.18 289.65)"/><path class="cls-14" d="M2267.57,651.77h-.06l.14.09Z" transform="translate(397.18 289.65)"/><path class="cls-12" d="M2303.83,712.17l.15.13Z" transform="translate(397.18 289.65)"/><path class="cls-15" d="M2231.16,719.66H2231v.12Z" transform="translate(397.18 289.65)"/><path class="cls-16" d="M2267.57,695.93h.13l-.13-.1Z" transform="translate(397.18 289.65)"/><path class="cls-5" d="M2563.49,411.29l0-.1-.15-.09-.06-.05-3.67,6-32.55,54c-.1.17-.18.35-.27.52l1.81-.7,10.12-4.61,11.31-5.13,11.36-5.17c.67-.3,1.36-.55,2-.82V411.87A2.35,2.35,0,0,1,2563.49,411.29Z" transform="translate(397.18 289.65)"/><path class="cls-20" d="M2563.49,411.29a2.35,2.35,0,0,0-.13.57V455.1h0l.13.09c.15.05.32.08.46.14l14.37,6.53,19.76,9c.52.23,1.07.42,1.6.62-.09-.19-.16-.39-.26-.57q-4.08-6.78-8.16-13.59-4.46-7.4-8.94-14.79-5-8.19-9.89-16.41l-8.57-14.25C2563.74,411.68,2563.61,411.49,2563.49,411.29Z" transform="translate(397.18 289.65)"/><path class="cls-21" d="M2563.37,455.1c-.69.27-1.38.52-2,.82L2550,461.09l-11.31,5.13-10.1,4.66-1.79.78a2.16,2.16,0,0,0,.41.44l12.94,7.67,22.65,13.38a3.81,3.81,0,0,0,.64.24V455.16Z" transform="translate(397.18 289.65)"/><path class="cls-5" d="M2563.37,455.21v38.13l9.67-5.7,26.3-15.57a2.27,2.27,0,0,0,.47-.46l-.15-.12h0c-.53-.2-1.08-.39-1.6-.62l-19.76-9-14.37-6.53c-.14-.06-.31-.09-.46-.14Z" transform="translate(397.18 289.65)"/><path class="cls-5" d="M2526.88,479.07l6,8.56,29.9,42.11.45.61.23-.34a6.32,6.32,0,0,1-.15-.83V500.32a4.23,4.23,0,0,1-.58-.25q-17.64-10.4-35.26-20.81c-.17-.1-.35-.19-.53-.28Z" transform="translate(397.18 289.65)"/><path class="cls-20" d="M2563.37,500.32v28.86a6,6,0,0,0,.15.83l3.49-4.89,4.64-6.52c1.3-1.84,2.59-3.68,3.9-5.51l8.14-11.42c2.28-3.23,4.55-6.47,6.84-9.69,2.39-3.39,4.79-6.76,7.19-10.15.64-.91,1.28-1.83,1.93-2.74l-.09-.08c-.72.4-1.45.78-2.17,1.2l-8.41,5-11,6.51c-3.65,2.15-7.3,4.28-10.94,6.43Z" transform="translate(397.18 289.65)"/><path class="cls-12" d="M2599.64,479.09l.1-.15-.19.07Z" transform="translate(397.18 289.65)"/><path class="cls-13" d="M2563.36,411.08h-.13l.06.05Z" transform="translate(397.18 289.65)"/><path class="cls-14" d="M2563.36,411.08h-.07l.15.09Z" transform="translate(397.18 289.65)"/><path class="cls-12" d="M2599.67,471.49l.15.12Z" transform="translate(397.18 289.65)"/><path class="cls-15" d="M2527,479h-.16v.12Z" transform="translate(397.18 289.65)"/><path class="cls-16" d="M2563.37,455.21h.13l-.13-.09Z" transform="translate(397.18 289.65)"/><path class="cls-9" d="M2212.57,418.49v-.1l-.15-.09-.06-.05-3.67,6-32.55,54c-.1.17-.18.35-.27.52.59-.26,1.19-.51,1.78-.78l10.13-4.61,11.31-5.14,11.35-5.17c.68-.3,1.37-.55,2.06-.82v-43.2A3.42,3.42,0,0,1,2212.57,418.49Z" transform="translate(397.18 289.65)"/><path class="cls-10" d="M2212.57,418.49a2.62,2.62,0,0,0-.12.57v43.23h0l.14.09.46.14,14.37,6.53,19.76,9c.52.23,1.07.42,1.6.62a5,5,0,0,0-.27-.57q-4.07-6.81-8.15-13.6c-3-4.94-6-9.86-8.94-14.79l-9.9-16.41L2213,419.08A6.51,6.51,0,0,0,2212.57,418.49Z" transform="translate(397.18 289.65)"/><path class="cls-11" d="M2212.47,462.29c-.69.27-1.38.52-2.06.82l-11.35,5.17-11.31,5.14L2177.62,478c-.59.27-1.19.52-1.78.78a2.43,2.43,0,0,0,.41.44q6.47,3.84,12.93,7.65l22.66,13.39a3.81,3.81,0,0,0,.64.24V462.39a.14.14,0,0,0,0-.09Z" transform="translate(397.18 289.65)"/><path class="cls-9" d="M2212.47,462.39v38.14l9.67-5.7,26.3-15.56a3.41,3.41,0,0,0,.47-.46l-.16-.12h0c-.53-.2-1.08-.39-1.6-.62l-19.76-9L2213,462.53l-.46-.14Z" transform="translate(397.18 289.65)"/><path class="cls-9" d="M2176,486.26c2,2.85,4,5.71,6.05,8.55q14.94,21.07,29.9,42.09c.13.19.27.38.45.61l.23-.34a6,6,0,0,1-.15-.83V507.51a4.35,4.35,0,0,1-.59-.25l-35.25-20.81-.53-.28Z" transform="translate(397.18 289.65)"/><path class="cls-10" d="M2212.47,507.51v28.86a6,6,0,0,0,.15.83l3.49-4.88,4.64-6.53c1.3-1.84,2.59-3.68,3.89-5.51q4.08-5.7,8.14-11.43c2.29-3.22,4.56-6.46,6.85-9.68q3.59-5.09,7.19-10.15l1.92-2.74-.08-.09c-.72.41-1.45.79-2.17,1.21l-8.41,5-10.95,6.5c-3.65,2.16-7.3,4.29-10.94,6.44Z" transform="translate(397.18 289.65)"/><path class="cls-12" d="M2248.73,486.28l.1-.15-.18.06Z" transform="translate(397.18 289.65)"/><path class="cls-13" d="M2212.46,418.28h-.13l.06.05Z" transform="translate(397.18 289.65)"/><path class="cls-14" d="M2212.46,418.28h-.07l.15.09Z" transform="translate(397.18 289.65)"/><path class="cls-12" d="M2248.76,478.69l.16.12Z" transform="translate(397.18 289.65)"/><path class="cls-15" d="M2176.1,486.17h-.16v.13Z" transform="translate(397.18 289.65)"/><path class="cls-16" d="M2212.47,462.39h.13l-.14-.09A.28.28,0,0,1,2212.47,462.39Z" transform="translate(397.18 289.65)"/><path class="cls-17" d="M2509.72,486.41l0-.1-.14-.09-.07-.05c-1.22,2-2.45,4-3.66,6l-32.54,54a3.84,3.84,0,0,0-.28.53l1.79-.79,10.12-4.61,11.31-5.13,11.35-5.17c.67-.3,1.37-.55,2-.82V487A4.28,4.28,0,0,1,2509.72,486.41Z" transform="translate(397.18 289.65)"/><path class="cls-18" d="M2509.72,486.41a4.78,4.78,0,0,0-.12.57v43.24h0l.13.09c.16.05.32.08.47.14l14.37,6.53,19.75,9c.52.23,1.07.42,1.6.63a3,3,0,0,0-.26-.58l-8.16-13.59q-4.44-7.4-8.94-14.79l-9.89-16.42L2510.1,487C2510,486.81,2509.85,486.61,2509.72,486.41Z" transform="translate(397.18 289.65)"/><path class="cls-19" d="M2509.6,530.22c-.68.27-1.38.52-2,.82l-11.35,5.17-11.31,5.13L2474.77,546l-1.79.79a2.38,2.38,0,0,0,.41.43l12.94,7.66L2509,568.21a3.81,3.81,0,0,0,.64.24V530.23Z" transform="translate(397.18 289.65)"/><path class="cls-17" d="M2509.6,530.33v38.12l9.68-5.7,26.27-15.55a2.33,2.33,0,0,0,.47-.47l-.15-.12h0c-.53-.21-1.08-.4-1.6-.63l-19.75-9-14.37-6.53c-.15-.06-.31-.09-.47-.14Z" transform="translate(397.18 289.65)"/><path class="cls-17" d="M2473.12,554.18l6.05,8.56,29.89,42.11.45.61.23-.34a5.75,5.75,0,0,1-.14-.83V575.43a3.37,3.37,0,0,1-.59-.25q-17.62-10.38-35.25-20.81c-.17-.1-.35-.18-.53-.27Z" transform="translate(397.18 289.65)"/><path class="cls-18" d="M2509.61,575.43v28.86a5.75,5.75,0,0,0,.14.83l3.49-4.88c1.56-2.18,3.1-4.35,4.64-6.52,1.3-1.83,2.59-3.68,3.9-5.51l8.14-11.43c2.29-3.23,4.56-6.46,6.84-9.69,2.39-3.39,4.8-6.76,7.19-10.14l1.93-2.75-.09-.08c-.72.4-1.45.78-2.16,1.2q-4.2,2.48-8.41,5c-3.66,2.17-7.3,4.35-11,6.51s-7.29,4.28-10.94,6.43Z" transform="translate(397.18 289.65)"/><path class="cls-12" d="M2545.87,554.2l.1-.15-.19.07Z" transform="translate(397.18 289.65)"/><path class="cls-13" d="M2509.55,486.2h-.13l.07.05Z" transform="translate(397.18 289.65)"/><path class="cls-14" d="M2509.55,486.2h-.06l.14.09Z" transform="translate(397.18 289.65)"/><path class="cls-12" d="M2545.9,546.61l.15.12Z" transform="translate(397.18 289.65)"/><path class="cls-15" d="M2473.24,554.1h-.16v.12Z" transform="translate(397.18 289.65)"/><path class="cls-16" d="M2509.6,530.33h.13l-.13-.09Z" transform="translate(397.18 289.65)"/><path class="cls-5" d="M2385.09,335.79l-.05-.1-.14-.1h-.06l-3.67,6-32.55,54c-.1.16-.18.35-.27.52.59-.26,1.19-.51,1.78-.78l10.12-4.61,11.32-5.13c3.78-1.72,7.56-3.46,11.35-5.17.67-.31,1.37-.55,2.06-.82V336.36A3.82,3.82,0,0,1,2385.09,335.79Z" transform="translate(397.18 289.65)"/><path class="cls-20" d="M2385.09,335.79a2.9,2.9,0,0,0-.12.57V379.6h0l.14.09a3.5,3.5,0,0,1,.46.14l14.37,6.53,19.76,9c.52.24,1.06.42,1.6.63q-.12-.28-.27-.57-4.07-6.81-8.15-13.6-4.47-7.41-8.94-14.78-5-8.22-9.9-16.42l-8.57-14.23C2385.35,336.18,2385.22,336,2385.09,335.79Z" transform="translate(397.18 289.65)"/><path class="cls-21" d="M2385,379.6c-.69.27-1.39.51-2.06.82-3.79,1.71-7.57,3.45-11.35,5.17l-11.32,5.13-10.12,4.61c-.59.27-1.19.52-1.78.78a1.91,1.91,0,0,0,.41.44l12.93,7.65,22.66,13.4c.2.09.42.17.63.24V379.7a.14.14,0,0,0,0-.09Z" transform="translate(397.18 289.65)"/><path class="cls-5" d="M2385,379.7v38.18l9.68-5.71,26.3-15.56a3.41,3.41,0,0,0,.47-.46l-.16-.13h0c-.54-.21-1.08-.39-1.6-.63l-19.76-9-14.35-6.52a3.5,3.5,0,0,0-.46-.14Z" transform="translate(397.18 289.65)"/><path class="cls-5" d="M2348.49,403.56l6.05,8.55q14.94,21.08,29.9,42.12l.44.61.24-.34a5.77,5.77,0,0,1-.15-.83V424.82a4.35,4.35,0,0,1-.59-.25l-35.26-20.83c-.17-.1-.35-.18-.52-.27Z" transform="translate(397.18 289.65)"/><path class="cls-20" d="M2385,424.82v28.85a5.77,5.77,0,0,0,.15.83l3.48-4.88,4.64-6.52c1.31-1.84,2.6-3.68,3.9-5.52,2.71-3.81,5.44-7.61,8.14-11.42,2.29-3.22,4.56-6.46,6.85-9.7l7.19-10.14,1.92-2.74-.08-.09c-.73.4-1.46.79-2.17,1.21q-4.22,2.49-8.41,5-5.48,3.27-11,6.5l-10.93,6.45C2387.45,423.34,2386.22,424.08,2385,424.82Z" transform="translate(397.18 289.65)"/><path class="cls-12" d="M2421.24,403.58l.1-.15-.18.06Z" transform="translate(397.18 289.65)"/><path class="cls-13" d="M2385,335.58h0Z" transform="translate(397.18 289.65)"/><path class="cls-14" d="M2385,335.58h-.07l.14.1Z" transform="translate(397.18 289.65)"/><path class="cls-12" d="M2421.27,396l.16.13Z" transform="translate(397.18 289.65)"/><path class="cls-15" d="M2348.61,403.47h-.16v.13Z" transform="translate(397.18 289.65)"/><path class="cls-16" d="M2385,379.7h.13l-.14-.09A.28.28,0,0,1,2385,379.7Z" transform="translate(397.18 289.65)"/><path class="cls-9" d="M2397.26,642.28v-.1l-.14-.09h-.07c-1.22,2-2.45,4-3.66,6l-32.55,54c-.1.17-.18.35-.28.52.6-.26,1.2-.51,1.79-.78l10.12-4.61,11.31-5.14,11.36-5.17c.67-.3,1.37-.55,2.06-.82V642.87A2.88,2.88,0,0,1,2397.26,642.28Z" transform="translate(397.18 289.65)"/><path class="cls-10" d="M2397.26,642.28a2.62,2.62,0,0,0-.12.57v43.23h0l.13.09.47.14,14.37,6.53,19.75,9c.53.24,1.07.42,1.61.63a5,5,0,0,0-.27-.57l-8.15-13.6q-4.47-7.41-9-14.79l-9.89-16.41-8.57-14.19A2.71,2.71,0,0,0,2397.26,642.28Z" transform="translate(397.18 289.65)"/><path class="cls-11" d="M2397.15,686.08c-.69.27-1.39.52-2.06.82l-11.36,5.17-11.31,5.14-10.12,4.61c-.59.27-1.19.52-1.79.78a2.49,2.49,0,0,0,.42.44q6.45,3.84,12.93,7.65l22.7,13.39a3.71,3.71,0,0,0,.63.24V686.09Z" transform="translate(397.18 289.65)"/><path class="cls-9" d="M2397.15,686.18v38.14l9.68-5.7,26.3-15.56a2.86,2.86,0,0,0,.46-.46l-.15-.13h0c-.54-.21-1.08-.39-1.61-.63l-19.75-9-14.37-6.53-.47-.14Z" transform="translate(397.18 289.65)"/><path class="cls-9" d="M2360.66,710.05c2,2.85,4,5.71,6.05,8.55l29.9,42.12.44.61.23-.34a4.8,4.8,0,0,1-.14-.83V731.3a4.35,4.35,0,0,1-.59-.25l-35.26-20.81a3.84,3.84,0,0,0-.53-.28Z" transform="translate(397.18 289.65)"/><path class="cls-10" d="M2397.15,731.3v28.86a4.8,4.8,0,0,0,.14.83l3.49-4.88,4.64-6.53,3.9-5.51q4.07-5.7,8.14-11.43c2.29-3.22,4.56-6.46,6.84-9.69l7.19-10.14c.65-.91,1.29-1.83,1.93-2.74l-.09-.09c-.72.4-1.45.79-2.16,1.21q-4.22,2.46-8.41,5c-3.66,2.17-7.3,4.34-11,6.5l-10.94,6.44Z" transform="translate(397.18 289.65)"/><path class="cls-12" d="M2433.41,710.07l.1-.15-.19.06Z" transform="translate(397.18 289.65)"/><path class="cls-13" d="M2397.13,642.07H2397a.09.09,0,0,1,.07,0Z" transform="translate(397.18 289.65)"/><path class="cls-14" d="M2397.13,642.07h-.06l.14.09Z" transform="translate(397.18 289.65)"/><path class="cls-12" d="M2433.44,702.47l.15.13Z" transform="translate(397.18 289.65)"/><path class="cls-15" d="M2360.77,709.93h-.15v.13Z" transform="translate(397.18 289.65)"/><path class="cls-16" d="M2397.15,686.18h.12l-.13-.09A.28.28,0,0,0,2397.15,686.18Z" transform="translate(397.18 289.65)"/><path class="cls-17" d="M2379.56,486.41v-.1l-.14-.09-.07-.05c-1.22,2-2.45,4-3.66,6l-32.55,54c-.1.17-.19.35-.28.53l1.79-.79,10.12-4.61,11.31-5.13,11.36-5.17c.67-.3,1.37-.55,2-.82V487A3,3,0,0,1,2379.56,486.41Z" transform="translate(397.18 289.65)"/><path class="cls-18" d="M2379.56,486.41a2.62,2.62,0,0,0-.12.57v43.24h0l.13.09c.16.05.32.08.47.14l14.37,6.53,19.75,9c.52.23,1.07.42,1.6.63a3.79,3.79,0,0,0-.26-.58l-8.16-13.59q-4.46-7.4-8.94-14.79l-9.89-16.42L2379.94,487A2.22,2.22,0,0,1,2379.56,486.41Z" transform="translate(397.18 289.65)"/><path class="cls-19" d="M2379.39,530.22c-.68.27-1.38.52-2,.82L2366,536.21l-11.31,5.13L2344.56,546l-1.79.79a3.35,3.35,0,0,0,.41.43l12.94,7.66,22.65,13.38a3.81,3.81,0,0,0,.64.24V530.23Z" transform="translate(397.18 289.65)"/><path class="cls-17" d="M2379.39,530.33v38.12l9.68-5.7,26.29-15.55a2.33,2.33,0,0,0,.47-.47l-.15-.12h0c-.53-.21-1.08-.4-1.6-.63l-19.75-9L2380,530.45c-.15-.06-.31-.09-.47-.14Z" transform="translate(397.18 289.65)"/><path class="cls-17" d="M2342.9,554.18l6,8.56,29.9,42.11.45.61.23-.34a4.64,4.64,0,0,1-.14-.83V575.43a3.37,3.37,0,0,1-.59-.25q-17.64-10.38-35.26-20.81c-.17-.1-.35-.18-.53-.27Z" transform="translate(397.18 289.65)"/><path class="cls-18" d="M2379.4,575.43v28.86a4.64,4.64,0,0,0,.14.83l3.49-4.88c1.56-2.18,3.1-4.35,4.64-6.52,1.3-1.83,2.59-3.68,3.9-5.51l8.14-11.43c2.29-3.23,4.56-6.46,6.84-9.69,2.39-3.39,4.8-6.76,7.19-10.14l1.93-2.75-.09-.08c-.72.4-1.45.78-2.16,1.2q-4.22,2.48-8.41,5c-3.66,2.17-7.3,4.35-11,6.51s-7.29,4.28-10.94,6.43Z" transform="translate(397.18 289.65)"/><path class="cls-12" d="M2415.66,554.2l.1-.15-.19.07Z" transform="translate(397.18 289.65)"/><path class="cls-13" d="M2379.38,486.2h-.13l.07.05Z" transform="translate(397.18 289.65)"/><path class="cls-14" d="M2379.38,486.2h-.06l.14.09Z" transform="translate(397.18 289.65)"/><path class="cls-12" d="M2415.69,546.61l.15.12Z" transform="translate(397.18 289.65)"/><path class="cls-15" d="M2343,554.1h-.16v.12Z" transform="translate(397.18 289.65)"/><path class="cls-16" d="M2379.39,530.33h.13l-.13-.09Z" transform="translate(397.18 289.65)"/><path class="cls-5" d="M2440.14,256.46v-.1l-.14-.09-.06,0-3.67,6-32.55,54c-.1.17-.18.35-.27.52.59-.26,1.19-.51,1.78-.78l10.12-4.61,11.32-5.13,11.35-5.18c.67-.3,1.37-.55,2.06-.82a.43.43,0,0,1,0-.16V257A2.62,2.62,0,0,1,2440.14,256.46Z" transform="translate(397.18 289.65)"/><path class="cls-20" d="M2440.14,256.46a2.62,2.62,0,0,0-.12.57V300.1a.43.43,0,0,0,0,.16h0l.14.09c.15,0,.31.08.46.14L2455,307l19.75,9c.53.23,1.07.42,1.61.63a5.14,5.14,0,0,0-.27-.58l-8.15-13.6L2459,287.69q-5-8.19-9.9-16.41-4.28-7.11-8.57-14.22C2440.4,256.85,2440.27,256.66,2440.14,256.46Z" transform="translate(397.18 289.65)"/><path class="cls-21" d="M2440,300.26c-.69.27-1.39.52-2.06.82l-11.35,5.18-11.32,5.13L2405.18,316c-.59.27-1.19.52-1.78.78a2.12,2.12,0,0,0,.41.44l12.93,7.66,22.66,13.38a3.41,3.41,0,0,0,.63.24V300.27Z" transform="translate(397.18 289.65)"/><path class="cls-5" d="M2440,300.37V338.5l9.68-5.7,26.3-15.56a3.41,3.41,0,0,0,.47-.46l-.16-.12h0c-.54-.2-1.08-.39-1.61-.62L2455,307l-14.37-6.54c-.15-.06-.31-.09-.46-.14Z" transform="translate(397.18 289.65)"/><path class="cls-5" d="M2403.56,324.23l6.05,8.56,29.9,42.11.44.61.23-.34a6,6,0,0,1-.14-.83V345.48a3.37,3.37,0,0,1-.59-.25l-35.26-20.81-.52-.28Z" transform="translate(397.18 289.65)"/><path class="cls-20" d="M2440,345.48v28.86a6,6,0,0,0,.14.83q1.76-2.43,3.49-4.88,2.31-3.27,4.64-6.52c1.31-1.84,2.6-3.69,3.9-5.52,2.71-3.81,5.44-7.61,8.14-11.42,2.29-3.23,4.56-6.47,6.84-9.69l7.2-10.15,1.92-2.74-.08-.08c-.73.4-1.46.78-2.17,1.2q-4.22,2.47-8.41,5l-11,6.51-10.93,6.43Z" transform="translate(397.18 289.65)"/><path class="cls-12" d="M2476.29,324.25l.1-.15-.18.07Z" transform="translate(397.18 289.65)"/><path class="cls-13" d="M2440,256.25h-.13l.06.05Z" transform="translate(397.18 289.65)"/><path class="cls-14" d="M2440,256.25H2440l.14.09Z" transform="translate(397.18 289.65)"/><path class="cls-12" d="M2476.32,316.66l.16.12Z" transform="translate(397.18 289.65)"/><path class="cls-15" d="M2403.66,324.14h-.16v.12Z" transform="translate(397.18 289.65)"/><path class="cls-16" d="M2440,300.37h.13l-.14-.09A.28.28,0,0,1,2440,300.37Z" transform="translate(397.18 289.65)"/><path class="cls-9" d="M2436.17,412.25l-.05-.11-.14-.09h-.07c-1.22,2-2.45,4-3.66,6l-32.55,54c-.1.17-.19.36-.28.54l1.79-.79,10.12-4.61,11.31-5.14c3.79-1.72,7.57-3.45,11.36-5.16.67-.31,1.37-.55,2-.83V412.81A2.78,2.78,0,0,1,2436.17,412.25Z" transform="translate(397.18 289.65)"/><path class="cls-10" d="M2436.17,412.25a2.9,2.9,0,0,0-.12.57v43.23h0l.13.1a2.54,2.54,0,0,1,.47.14l14.37,6.53,19.75,9c.52.24,1.07.42,1.61.64a6.11,6.11,0,0,0-.27-.58l-8.16-13.6q-4.45-7.39-8.94-14.78l-9.89-16.41-8.56-14.22C2436.43,412.64,2436.3,412.44,2436.17,412.25Z" transform="translate(397.18 289.65)"/><path class="cls-11" d="M2436.05,456.05c-.68.28-1.38.52-2,.83-3.79,1.71-7.57,3.44-11.36,5.16l-11.31,5.14-10.12,4.61-1.79.79a2.49,2.49,0,0,0,.42.44l12.93,7.65,22.66,13.39a3.38,3.38,0,0,0,.63.23V456.16a.17.17,0,0,1,0-.1Z" transform="translate(397.18 289.65)"/><path class="cls-9" d="M2436.06,456.16v38.13l9.68-5.69L2472,473a3.41,3.41,0,0,0,.47-.46l-.15-.14h0c-.54-.21-1.09-.39-1.61-.63l-19.75-9-14.37-6.53a2.54,2.54,0,0,0-.47-.14Z" transform="translate(397.18 289.65)"/><path class="cls-9" d="M2399.56,480l6.05,8.56,29.95,42.12.44.61.23-.34a4.91,4.91,0,0,1-.14-.84V501.28a4.35,4.35,0,0,1-.59-.25l-35.26-20.82c-.17-.1-.35-.18-.53-.27Z" transform="translate(397.18 289.65)"/><path class="cls-10" d="M2436.06,501.28v28.85a4.91,4.91,0,0,0,.14.84l3.49-4.89q2.32-3.26,4.64-6.53c1.3-1.83,2.59-3.67,3.9-5.51l8.14-11.42c2.29-3.22,4.56-6.46,6.84-9.69l7.19-10.14c.65-.91,1.29-1.83,1.93-2.75l-.09-.08c-.72.4-1.45.79-2.16,1.21q-4.23,2.47-8.41,5c-3.66,2.16-7.3,4.34-11,6.5s-7.29,4.29-10.94,6.43Z" transform="translate(397.18 289.65)"/><path class="cls-12" d="M2472.32,480l.1-.15-.19.07Z" transform="translate(397.18 289.65)"/><path class="cls-13" d="M2436,412h0Z" transform="translate(397.18 289.65)"/><path class="cls-14" d="M2436,412H2436l.14.09Z" transform="translate(397.18 289.65)"/><path class="cls-12" d="M2472.35,472.44l.15.14Z" transform="translate(397.18 289.65)"/><path class="cls-15" d="M2399.68,479.94h-.15v.12Z" transform="translate(397.18 289.65)"/><path class="cls-16" d="M2436.06,456.16h.12l-.13-.1A.31.31,0,0,0,2436.06,456.16Z" transform="translate(397.18 289.65)"/><path class="cls-5" d="M2330.47,577.46v-.11l-.15-.09-.06,0c-1.21,2-2.44,4-3.66,6l-32.55,54c-.1.17-.18.35-.27.53l1.79-.79,10.12-4.6,11.31-5.14,11.35-5.16c.68-.31,1.37-.55,2.06-.83V578A2.74,2.74,0,0,1,2330.47,577.46Z" transform="translate(397.18 289.65)"/><path class="cls-20" d="M2330.47,577.46a2.68,2.68,0,0,0-.13.56v43.24h0l.13.1a2.24,2.24,0,0,1,.46.14L2345.3,628l19.76,9c.52.24,1.07.42,1.6.63-.09-.19-.16-.4-.26-.58q-4.08-6.78-8.16-13.59c-3-4.93-6-9.85-8.94-14.78l-9.9-16.42-8.56-14.23Z" transform="translate(397.18 289.65)"/><path class="cls-21" d="M2330.35,621.26c-.68.28-1.37.52-2,.83L2317,627.25l-11.31,5.14-10.12,4.6-1.79.79a1.72,1.72,0,0,0,.41.44l12.94,7.66,22.64,13.39a3.77,3.77,0,0,0,.64.23V621.27Z" transform="translate(397.18 289.65)"/><path class="cls-5" d="M2330.35,621.37V659.5c3.22-1.9,6.45-3.79,9.67-5.7q13.17-7.77,26.3-15.56a2.92,2.92,0,0,0,.47-.46l-.15-.13h0c-.53-.21-1.08-.39-1.6-.63l-19.76-9-14.37-6.53a2.24,2.24,0,0,0-.46-.14Z" transform="translate(397.18 289.65)"/><path class="cls-5" d="M2293.87,645.23l6,8.56,29.89,42.12.45.61.23-.35a6,6,0,0,1-.15-.83V666.48c-.18-.08-.39-.14-.59-.24l-35.13-20.82c-.17-.1-.36-.18-.53-.27Z" transform="translate(397.18 289.65)"/><path class="cls-20" d="M2330.35,666.48v28.86a6,6,0,0,0,.15.83l3.49-4.88,4.64-6.53c1.3-1.83,2.59-3.68,3.89-5.51l8.15-11.42c2.28-3.22,4.55-6.46,6.84-9.69L2364.7,648l1.93-2.75-.09-.08c-.72.4-1.45.79-2.17,1.21l-8.41,5-10.95,6.5-10.94,6.43Z" transform="translate(397.18 289.65)"/><path class="cls-12" d="M2366.62,645.25l.09-.15-.18.07Z" transform="translate(397.18 289.65)"/><path class="cls-13" d="M2330.34,577.24h-.12l.06,0Z" transform="translate(397.18 289.65)"/><path class="cls-14" d="M2330.34,577.24h-.07l.15.09Z" transform="translate(397.18 289.65)"/><path class="cls-12" d="M2366.65,637.65l.15.13Z" transform="translate(397.18 289.65)"/><path class="cls-15" d="M2294,645.15h-.16v.12Z" transform="translate(397.18 289.65)"/><path class="cls-16" d="M2330.35,621.37h.13l-.13-.1Z" transform="translate(397.18 289.65)"/><path class="cls-9" d="M2504.84,345l-.05-.1-.15-.09-.06,0-3.66,6-32.55,54c-.1.17-.18.35-.27.52l1.79-.78,10.12-4.61,11.31-5.13,11.35-5.17c.68-.3,1.37-.55,2.06-.82V345.54A2.3,2.3,0,0,1,2504.84,345Z" transform="translate(397.18 289.65)"/><path class="cls-10" d="M2504.84,345a2.32,2.32,0,0,0-.12.57v43.24h0l.12.09c.15.05.32.08.46.14l14.37,6.53,19.76,9c.52.23,1.07.42,1.6.63a3.38,3.38,0,0,0-.27-.58q-4.05-6.79-8.15-13.59c-3-4.93-6-9.85-8.94-14.78l-9.9-16.43q-4.28-7.11-8.56-14.22Z" transform="translate(397.18 289.65)"/><path class="cls-11" d="M2504.72,388.78c-.69.27-1.38.52-2.06.82l-11.34,5.17-11.31,5.1-10.12,4.61-1.79.78a1.72,1.72,0,0,0,.41.44l12.94,7.66,22.64,13.39a3.81,3.81,0,0,0,.64.24V388.78Z" transform="translate(397.18 289.65)"/><path class="cls-9" d="M2504.72,388.87V427c3.22-1.9,6.45-3.79,9.67-5.7l26.3-15.56a2.61,2.61,0,0,0,.47-.47l-.15-.12h0c-.53-.21-1.08-.4-1.6-.63l-19.76-9L2505.28,389c-.14-.06-.31-.09-.46-.14Z" transform="translate(397.18 289.65)"/><path class="cls-9" d="M2468.24,412.74l6.05,8.57,29.89,42.1c.13.19.27.38.45.61l.23-.34a5.77,5.77,0,0,1-.15-.83V434c-.2-.07-.39-.16-.59-.25l-35.24-20.82c-.17-.1-.36-.18-.53-.27Z" transform="translate(397.18 289.65)"/><path class="cls-10" d="M2504.72,434v28.88a5.77,5.77,0,0,0,.15.83l3.49-4.88,4.64-6.52c1.3-1.84,2.59-3.68,3.89-5.51q4.08-5.71,8.14-11.42c2.29-3.23,4.56-6.47,6.85-9.69,2.39-3.39,4.79-6.76,7.19-10.15l1.92-2.75-.08-.08c-.72.4-1.45.78-2.17,1.2l-8.41,5-10.95,6.51c-3.65,2.15-7.3,4.28-10.94,6.43Z" transform="translate(397.18 289.65)"/><path class="cls-12" d="M2541,412.76l.1-.15-.18.07Z" transform="translate(397.18 289.65)"/><path class="cls-13" d="M2504.71,344.76h-.13l.06.05Z" transform="translate(397.18 289.65)"/><path class="cls-14" d="M2504.71,344.76h-.07l.15.09Z" transform="translate(397.18 289.65)"/><path class="cls-12" d="M2541,405.17l.15.12Z" transform="translate(397.18 289.65)"/><path class="cls-15" d="M2468.36,412.66h-.16v.12Z" transform="translate(397.18 289.65)"/><path class="cls-16" d="M2504.72,388.87h.13l-.13-.09Z" transform="translate(397.18 289.65)"/><path class="cls-17" d="M2451.85,562.38l0-.1-.14-.09h-.06q-1.84,3-3.67,6l-32.55,54c-.1.17-.18.35-.27.53l1.78-.79,10.12-4.61c3.77-1.71,7.55-3.41,11.32-5.13l11.35-5.17c.67-.3,1.37-.55,2.06-.82a.43.43,0,0,1,0-.16V563A2.87,2.87,0,0,1,2451.85,562.38Z" transform="translate(397.18 289.65)"/><path class="cls-18" d="M2451.85,562.38a2.9,2.9,0,0,0-.12.57V606a.43.43,0,0,0,0,.16h0l.14.1a4,4,0,0,1,.46.13L2466.7,613l19.76,9c.52.24,1.06.42,1.6.63a6.11,6.11,0,0,0-.27-.58l-8.15-13.59-8.94-14.78q-5-8.22-9.9-16.43-4.28-7.11-8.57-14.22C2452.11,562.78,2452,562.58,2451.85,562.38Z" transform="translate(397.18 289.65)"/><path class="cls-19" d="M2451.74,606.19c-.69.27-1.39.52-2.06.82l-11.35,5.17c-3.77,1.72-7.55,3.42-11.32,5.13l-10.12,4.6-1.78.79c.13.14.24.34.41.43l12.93,7.66,22.66,13.4a4.29,4.29,0,0,0,.63.23V606.2Z" transform="translate(397.18 289.65)"/><path class="cls-17" d="M2451.74,606.3v38.13c3.23-1.9,6.46-3.79,9.68-5.71q13.15-7.77,26.3-15.55a3,3,0,0,0,.47-.47l-.16-.12h0c-.54-.21-1.08-.39-1.6-.63l-19.76-9-14.37-6.54a4,4,0,0,0-.46-.13Z" transform="translate(397.18 289.65)"/><path class="cls-17" d="M2415.25,630.15l6,8.56q14.94,21.07,29.9,42.12l.44.6.24-.34a3.91,3.91,0,0,1-.15-.83V651.41a6.07,6.07,0,0,1-.59-.24l-35.26-20.83c-.17-.1-.35-.18-.52-.27Z" transform="translate(397.18 289.65)"/><path class="cls-18" d="M2451.74,651.41v28.85a3.91,3.91,0,0,0,.15.83l3.48-4.87c1.55-2.18,3.1-4.35,4.64-6.53,1.31-1.83,2.6-3.68,3.9-5.51,2.71-3.81,5.44-7.61,8.14-11.42l6.85-9.69,7.19-10.15,1.92-2.75-.08-.08c-.73.4-1.46.79-2.17,1.2-2.81,1.66-5.61,3.31-8.41,5-3.65,2.16-7.3,4.35-11,6.51l-10.93,6.43Z" transform="translate(397.18 289.65)"/><path class="cls-12" d="M2488,630.17l.1-.15-.18.07Z" transform="translate(397.18 289.65)"/><path class="cls-13" d="M2451.73,562.17h0Z" transform="translate(397.18 289.65)"/><path class="cls-14" d="M2451.73,562.17h-.07l.14.09Z" transform="translate(397.18 289.65)"/><path class="cls-12" d="M2488,622.58l.16.12Z" transform="translate(397.18 289.65)"/><path class="cls-15" d="M2415.37,630.07h-.16v.12Z" transform="translate(397.18 289.65)"/><path class="cls-16" d="M2451.74,606.3h.13l-.14-.1A.34.34,0,0,1,2451.74,606.3Z" transform="translate(397.18 289.65)"/><path class="cls-5" d="M2268.4,328.76v-.1l-.14-.09h-.06l-3.67,6-32.55,54c-.1.17-.18.35-.27.52.59-.26,1.19-.51,1.78-.78l10.12-4.61,11.32-5.13,11.35-5.17c.67-.3,1.37-.55,2.06-.82V329.33A2.76,2.76,0,0,1,2268.4,328.76Z" transform="translate(397.18 289.65)"/><path class="cls-20" d="M2268.4,328.76a2.75,2.75,0,0,0-.12.57v43.24h0l.14.09c.15,0,.31.08.46.14l14.37,6.53,19.76,9c.52.23,1.06.42,1.6.63a6.11,6.11,0,0,0-.27-.58l-8.15-13.59L2287.25,360q-5-8.19-9.9-16.42-4.28-7.11-8.57-14.22A4,4,0,0,0,2268.4,328.76Z" transform="translate(397.18 289.65)"/><path class="cls-21" d="M2268.29,372.57c-.69.27-1.39.52-2.06.82l-11.35,5.17-11.31,5.13-10.12,4.61c-.59.27-1.19.52-1.78.78a1.72,1.72,0,0,0,.41.44l12.93,7.66,22.66,13.38a3.41,3.41,0,0,0,.63.24V372.58Z" transform="translate(397.18 289.65)"/><path class="cls-5" d="M2268.29,372.68V410.8c3.23-1.9,6.46-3.79,9.68-5.7q13.16-7.77,26.3-15.55a3.48,3.48,0,0,0,.47-.47l-.16-.12h0c-.54-.21-1.08-.4-1.6-.63l-19.76-9-14.37-6.53c-.15-.06-.31-.09-.46-.14Z" transform="translate(397.18 289.65)"/><path class="cls-5" d="M2231.8,396.53l6,8.56,29.9,42.11.44.61.24-.34a3.91,3.91,0,0,1-.15-.83V417.79a6.14,6.14,0,0,1-.59-.25l-35.26-20.82c-.17-.1-.35-.18-.52-.27Z" transform="translate(397.18 289.65)"/><path class="cls-20" d="M2268.29,417.79v28.85a3.91,3.91,0,0,0,.15.83l3.49-4.88c1.54-2.17,3.09-4.34,4.63-6.52,1.31-1.84,2.6-3.68,3.9-5.51,2.71-3.81,5.44-7.61,8.14-11.42,2.29-3.24,4.56-6.48,6.85-9.7,2.39-3.39,4.79-6.76,7.19-10.14l1.92-2.75-.08-.08c-.72.4-1.46.78-2.17,1.2q-4.21,2.47-8.41,5c-3.65,2.17-7.3,4.35-11,6.51L2272,415.61Z" transform="translate(397.18 289.65)"/><path class="cls-12" d="M2304.57,396.55l.1-.15-.18.07Z" transform="translate(397.18 289.65)"/><path class="cls-13" d="M2268.28,328.55h0Z" transform="translate(397.18 289.65)"/><path class="cls-14" d="M2268.28,328.55h-.07l.14.09Z" transform="translate(397.18 289.65)"/><path class="cls-12" d="M2304.57,389l.16.12Z" transform="translate(397.18 289.65)"/><path class="cls-15" d="M2231.92,396.45h-.16v.12Z" transform="translate(397.18 289.65)"/><path class="cls-16" d="M2268.29,372.68h.13l-.14-.09A.28.28,0,0,1,2268.29,372.68Z" transform="translate(397.18 289.65)"/><path class="cls-9" d="M2274.92,489v-.1l-.14-.09-.07-.05c-1.22,2-2.45,4-3.66,6l-32.56,54c-.1.17-.18.35-.27.53l1.79-.79,10.12-4.61,11.31-5.13,11.36-5.17c.67-.3,1.37-.55,2-.82V489.55A2,2,0,0,1,2274.92,489Z" transform="translate(397.18 289.65)"/><path class="cls-10" d="M2274.92,489a1.81,1.81,0,0,0-.12.57v43.24h0l.13.09c.16.05.32.08.46.14l14.38,6.53,19.75,9c.52.23,1.07.42,1.6.63-.09-.2-.16-.4-.26-.58L2302.7,535l-8.94-14.79-9.89-16.42-8.58-14.22Z" transform="translate(397.18 289.65)"/><path class="cls-11" d="M2274.8,532.82c-.68.27-1.38.52-2.05.82l-11.36,5.17-11.31,5.09L2240,548.51l-1.79.79a2.78,2.78,0,0,0,.41.43l12.94,7.66,22.65,13.38a2.9,2.9,0,0,0,.64.24V532.82Z" transform="translate(397.18 289.65)"/><path class="cls-9" d="M2274.8,532.9V571l9.68-5.7,26.29-15.55a3.48,3.48,0,0,0,.47-.47l-.15-.12h0c-.53-.21-1.08-.4-1.6-.63l-19.75-9L2275.36,533c-.14-.06-.3-.09-.46-.14Z" transform="translate(397.18 289.65)"/><path class="cls-9" d="M2238.31,556.78l6.05,8.56,29.9,42.11.45.61.23-.34a4.64,4.64,0,0,1-.14-.83V578a3.07,3.07,0,0,1-.59-.25Q2256.57,567.4,2239,557c-.17-.1-.35-.18-.53-.27Z" transform="translate(397.18 289.65)"/><path class="cls-10" d="M2274.81,578v28.86a4.64,4.64,0,0,0,.14.83l3.49-4.88,4.64-6.52c1.3-1.83,2.59-3.68,3.9-5.51l8.14-11.43c2.29-3.23,4.56-6.46,6.84-9.69,2.39-3.39,4.79-6.76,7.19-10.14l1.93-2.75-.09-.08c-.72.4-1.45.78-2.16,1.2l-8.42,5c-3.65,2.17-7.3,4.35-10.95,6.51s-7.3,4.28-10.94,6.43Z" transform="translate(397.18 289.65)"/><path class="cls-12" d="M2311.07,556.8l.1-.15-.19.07Z" transform="translate(397.18 289.65)"/><path class="cls-13" d="M2274.79,488.8h-.13l.07.05Z" transform="translate(397.18 289.65)"/><path class="cls-14" d="M2274.79,488.8h-.06l.14.09Z" transform="translate(397.18 289.65)"/><path class="cls-12" d="M2311.1,549.21l.15.12Z" transform="translate(397.18 289.65)"/><path class="cls-15" d="M2238.43,556.7h-.16v.12Z" transform="translate(397.18 289.65)"/><path class="cls-16" d="M2274.8,532.9h.13l-.13-.09Z" transform="translate(397.18 289.65)"/><path class="cls-22" d="M1550.87,671.31a18.08,18.08,0,1,0-18.09,18.07h0a18.07,18.07,0,0,0,18.07-18.07" transform="translate(397.18 289.65)"/><path class="cls-22" d="M1745,671.31a18.08,18.08,0,1,0-18.09,18.07h0A18.08,18.08,0,0,0,1745,671.31" transform="translate(397.18 289.65)"/><polygon class="cls-23" points="1821.47 874.7 2194.89 874.7 2226.53 886.79 2202.73 972.02 1844.98 972.02 1821.47 874.7"/><path class="cls-22" d="M1755,787.71H1498.36a50.56,50.56,0,0,1-50.55-50.57V682.37H1805.6v54.75A50.57,50.57,0,0,1,1755,787.71h0" transform="translate(397.18 289.65)"/><path class="cls-24" d="M1755,799.33H1498.36a62.25,62.25,0,0,1-62.18-62.21V670.75h381v66.37A62.25,62.25,0,0,1,1755,799.33ZM1459.42,694v43.13a39,39,0,0,0,39,39H1755a39,39,0,0,0,39-39h0V694Z" transform="translate(397.18 289.65)"/><path class="cls-7" d="M1561.08,585.06a159.57,159.57,0,0,1-59-247.53c29.24-35.45,213.21-37.25,242.42-4.26a159.54,159.54,0,0,1-55.32,251.78" transform="translate(397.18 289.65)"/><path class="cls-24" d="M1551,596.67a11.56,11.56,0,0,1-5.07-1.17c-61.94-30.15-100.4-91.61-100.4-160.5a177.83,177.83,0,0,1,28-96.07,11.62,11.62,0,0,1,19.57,12.53,155.27,155.27,0,0,0,63,223.13,11.63,11.63,0,0,1-5.1,22.08Z" transform="translate(397.18 289.65)"/><path class="cls-24" d="M1698.44,595.82a11.63,11.63,0,0,1-5.21-22A155.26,155.26,0,0,0,1749,343.31a11.62,11.62,0,1,1,18.74-13.75,178.47,178.47,0,0,1-64.09,265.05A11.55,11.55,0,0,1,1698.44,595.82Z" transform="translate(397.18 289.65)"/><path class="cls-24" d="M1814.59,694H1438.77l-61.15-240.79v-1.46c0-137.36,111.72-249.11,249.07-249.11s249,111.75,249,249.11v1.46l-.36,1.4Zm-357.74-23.24h339.67l56-220.44c-.8-123.89-101.79-224.46-225.83-224.46S1401.62,326.41,1400.85,450.3Z" transform="translate(397.18 289.65)"/><path class="cls-24" d="M1389.23,459.88a11.61,11.61,0,0,1-11.61-11.58v-226a11.62,11.62,0,0,1,23.23,0v226A11.61,11.61,0,0,1,1389.23,459.88Z" transform="translate(397.18 289.65)"/><path class="cls-24" d="M1864.11,459.88a11.61,11.61,0,0,1-11.61-11.61h0V158.45a11.62,11.62,0,1,1,23.23-.68c0,.22,0,.45,0,.68V448.3A11.62,11.62,0,0,1,1864.11,459.88Z" transform="translate(397.18 289.65)"/><path class="cls-24" d="M1407.72,561.44H1383.2a47.73,47.73,0,0,1-47.66-47.69V422.17a47.74,47.74,0,0,1,47.66-47.69h10.42a11.62,11.62,0,0,1,0,23.24h-10.4a24.48,24.48,0,0,0-24.43,24.45v91.58a24.47,24.47,0,0,0,24.43,24.45h24.52a11.62,11.62,0,0,1,0,23.24h0Z" transform="translate(397.18 289.65)"/><path class="cls-24" d="M1871,561.44h-24.5a11.62,11.62,0,0,1,0-23.24H1871a24.47,24.47,0,0,0,24.45-24.45V422.17A24.47,24.47,0,0,0,1871,397.72h-10.38a11.62,11.62,0,0,1,0-23.24H1871a47.74,47.74,0,0,1,47.68,47.69v91.58A47.73,47.73,0,0,1,1871,561.44Z" transform="translate(397.18 289.65)"/><path class="cls-24" d="M1391.79,423.63a11.62,11.62,0,0,1-8.32-19.74c66-67.57,153.66-104.78,247-104.78,87.88,0,171.86,33.54,236.44,94.44a11.61,11.61,0,1,1-15.93,16.9h0c-60.27-56.81-138.58-88.09-220.51-88.09-87,0-168.79,34.71-230.34,97.77A11.6,11.6,0,0,1,1391.79,423.63Z" transform="translate(397.18 289.65)"/><path class="cls-24" d="M1829.34,596.66h-405a11.62,11.62,0,0,1,0-23.24h405a11.63,11.63,0,0,1,.69,23.24Z" transform="translate(397.18 289.65)"/><path class="cls-25" d="M1710,386.1a41.6,41.6,0,1,1-41.61-41.6h0a41.6,41.6,0,0,1,41.6,41.6" transform="translate(397.18 289.65)"/><path class="cls-25" d="M1739.73,448.3a16.82,16.82,0,1,1-16.83-16.82,16.82,16.82,0,0,1,16.83,16.82h0" transform="translate(397.18 289.65)"/><path class="cls-24" d="M1770.3,660.82c-16.49,0-24.73-12.46-30.19-20.7-5.17-7.85-7.34-10.29-10.79-10.29s-5.61,2.44-10.79,10.29c-5.46,8.25-13.69,20.7-30.18,20.7s-24.73-12.45-30.19-20.7c-5.19-7.85-7.35-10.29-10.81-10.29s-5.62,2.44-10.81,10.29c-5.44,8.25-13.68,20.7-30.18,20.7s-24.73-12.45-30.18-20.7c-5.18-7.85-7.35-10.29-10.8-10.29s-5.64,2.44-10.83,10.3c-5.46,8.24-13.7,20.69-30.19,20.69s-24.75-12.45-30.2-20.7c-5.2-7.85-7.36-10.29-10.83-10.29a11.62,11.62,0,0,1,0-23.24c16.5,0,24.75,12.46,30.21,20.7,5.18,7.84,7.36,10.28,10.82,10.28s5.63-2.44,10.81-10.28c5.46-8.24,13.71-20.7,30.21-20.7s24.72,12.46,30.18,20.7c5.18,7.84,7.36,10.28,10.8,10.28s5.62-2.44,10.82-10.28c5.45-8.24,13.69-20.7,30.17-20.7s24.74,12.46,30.19,20.7c5.19,7.84,7.36,10.28,10.81,10.28s5.61-2.44,10.8-10.28c5.44-8.24,13.68-20.7,30.17-20.7s24.73,12.46,30.18,20.7c5.18,7.84,7.35,10.28,10.8,10.28a11.63,11.63,0,0,1,0,23.25Z" transform="translate(397.18 289.65)"/><polygon class="cls-26" points="2614.58 525.11 2671.75 494.27 2730.33 525.11 2671.75 556.98 2614.58 525.11"/><polygon class="cls-27" points="2671.75 414.48 2671.75 549.01 2730.33 515.25 2671.75 414.48"/><polygon class="cls-28" points="2614.58 516.19 2671.75 549.01 2671.75 414.48 2614.58 516.19"/><polygon class="cls-27" points="2614.58 525.11 2671.75 556.98 2671.75 616.51 2614.58 525.11"/><polygon class="cls-28" points="2671.75 556.98 2730.33 525.11 2671.75 616.51 2671.75 556.98"/><path class="cls-29" d="M2274.57,326.86V267.33S2276.57,283.67,2274.57,326.86Z" transform="translate(397.18 289.65)"/><path class="cls-29" d="M2333.14,235.45l-58.57,31.88S2298.14,257.39,2333.14,235.45Z" transform="translate(397.18 289.65)"/><path class="cls-29" d="M2217.39,235.45l57.18,31.88S2246.33,253.45,2217.39,235.45Z" transform="translate(397.18 289.65)"/><path class="cls-29" d="M2274.57,124.82V259.36S2276.11,158.54,2274.57,124.82Z" transform="translate(397.18 289.65)"/></g></svg>